%TF.GenerationSoftware,KiCad,Pcbnew,10.0.2*%
%TF.CreationDate,2026-05-11T15:16:24-07:00*%
%TF.ProjectId,p4hil,70346869-6c2e-46b6-9963-61645f706362,rev?*%
%TF.SameCoordinates,Original*%
%TF.FileFunction,Soldermask,Bot*%
%TF.FilePolarity,Negative*%
%FSLAX46Y46*%
G04 Gerber Fmt 4.6, Leading zero omitted, Abs format (unit mm)*
G04 Created by KiCad (PCBNEW 10.0.2) date 2026-05-11 15:16:24*
%MOMM*%
%LPD*%
G01*
G04 APERTURE LIST*
G04 Aperture macros list*
%AMRoundRect*
0 Rectangle with rounded corners*
0 $1 Rounding radius*
0 $2 $3 $4 $5 $6 $7 $8 $9 X,Y pos of 4 corners*
0 Add a 4 corners polygon primitive as box body*
4,1,4,$2,$3,$4,$5,$6,$7,$8,$9,$2,$3,0*
0 Add four circle primitives for the rounded corners*
1,1,$1+$1,$2,$3*
1,1,$1+$1,$4,$5*
1,1,$1+$1,$6,$7*
1,1,$1+$1,$8,$9*
0 Add four rect primitives between the rounded corners*
20,1,$1+$1,$2,$3,$4,$5,0*
20,1,$1+$1,$4,$5,$6,$7,0*
20,1,$1+$1,$6,$7,$8,$9,0*
20,1,$1+$1,$8,$9,$2,$3,0*%
%AMRotRect*
0 Rectangle, with rotation*
0 The origin of the aperture is its center*
0 $1 length*
0 $2 width*
0 $3 Rotation angle, in degrees counterclockwise*
0 Add horizontal line*
21,1,$1,$2,0,0,$3*%
%AMFreePoly0*
4,1,14,0.385355,0.085355,0.400000,0.050000,0.400000,0.020711,0.385355,-0.014644,0.314644,-0.085355,0.279289,-0.100000,-0.350000,-0.100000,-0.385355,-0.085355,-0.400000,-0.050000,-0.400000,0.050000,-0.385355,0.085355,-0.350000,0.100000,0.350000,0.100000,0.385355,0.085355,0.385355,0.085355,$1*%
%AMFreePoly1*
4,1,14,0.314644,0.085355,0.385355,0.014644,0.400000,-0.020711,0.400000,-0.050000,0.385355,-0.085355,0.350000,-0.100000,-0.350000,-0.100000,-0.385355,-0.085355,-0.400000,-0.050000,-0.400000,0.050000,-0.385355,0.085355,-0.350000,0.100000,0.279289,0.100000,0.314644,0.085355,0.314644,0.085355,$1*%
%AMFreePoly2*
4,1,14,0.085355,0.385355,0.100000,0.350000,0.100000,-0.350000,0.085355,-0.385355,0.050000,-0.400000,0.020711,-0.400000,-0.014644,-0.385355,-0.085355,-0.314644,-0.100000,-0.279289,-0.100000,0.350000,-0.085355,0.385355,-0.050000,0.400000,0.050000,0.400000,0.085355,0.385355,0.085355,0.385355,$1*%
%AMFreePoly3*
4,1,14,0.085355,0.385355,0.100000,0.350000,0.100000,-0.279289,0.085355,-0.314644,0.014644,-0.385355,-0.020711,-0.400000,-0.050000,-0.400000,-0.085355,-0.385355,-0.100000,-0.350000,-0.100000,0.350000,-0.085355,0.385355,-0.050000,0.400000,0.050000,0.400000,0.085355,0.385355,0.085355,0.385355,$1*%
%AMFreePoly4*
4,1,14,0.385355,0.085355,0.400000,0.050000,0.400000,-0.050000,0.385355,-0.085355,0.350000,-0.100000,-0.350000,-0.100000,-0.385355,-0.085355,-0.400000,-0.050000,-0.400000,-0.020711,-0.385355,0.014644,-0.314644,0.085355,-0.279289,0.100000,0.350000,0.100000,0.385355,0.085355,0.385355,0.085355,$1*%
%AMFreePoly5*
4,1,14,0.385355,0.085355,0.400000,0.050000,0.400000,-0.050000,0.385355,-0.085355,0.350000,-0.100000,-0.279289,-0.100000,-0.314644,-0.085355,-0.385355,-0.014644,-0.400000,0.020711,-0.400000,0.050000,-0.385355,0.085355,-0.350000,0.100000,0.350000,0.100000,0.385355,0.085355,0.385355,0.085355,$1*%
%AMFreePoly6*
4,1,14,0.014644,0.385355,0.085355,0.314644,0.100000,0.279289,0.100000,-0.350000,0.085355,-0.385355,0.050000,-0.400000,-0.050000,-0.400000,-0.085355,-0.385355,-0.100000,-0.350000,-0.100000,0.350000,-0.085355,0.385355,-0.050000,0.400000,-0.020711,0.400000,0.014644,0.385355,0.014644,0.385355,$1*%
%AMFreePoly7*
4,1,14,0.085355,0.385355,0.100000,0.350000,0.100000,-0.350000,0.085355,-0.385355,0.050000,-0.400000,-0.050000,-0.400000,-0.085355,-0.385355,-0.100000,-0.350000,-0.100000,0.279289,-0.085355,0.314644,-0.014644,0.385355,0.020711,0.400000,0.050000,0.400000,0.085355,0.385355,0.085355,0.385355,$1*%
G04 Aperture macros list end*
%ADD10R,1.700000X1.700000*%
%ADD11C,1.700000*%
%ADD12C,4.600000*%
%ADD13R,3.500000X3.500000*%
%ADD14RoundRect,0.750000X0.750000X1.000000X-0.750000X1.000000X-0.750000X-1.000000X0.750000X-1.000000X0*%
%ADD15RoundRect,0.875000X0.875000X0.875000X-0.875000X0.875000X-0.875000X-0.875000X0.875000X-0.875000X0*%
%ADD16RoundRect,0.250000X-0.500000X0.500000X-0.500000X-0.500000X0.500000X-0.500000X0.500000X0.500000X0*%
%ADD17C,1.500000*%
%ADD18C,3.000000*%
%ADD19C,0.600000*%
%ADD20O,2.000000X0.900000*%
%ADD21O,1.700000X0.900000*%
%ADD22C,3.250000*%
%ADD23RoundRect,0.250500X0.499500X-0.499500X0.499500X0.499500X-0.499500X0.499500X-0.499500X-0.499500X0*%
%ADD24C,2.500000*%
%ADD25C,0.900000*%
%ADD26RoundRect,0.135000X-0.185000X0.135000X-0.185000X-0.135000X0.185000X-0.135000X0.185000X0.135000X0*%
%ADD27RoundRect,0.135000X0.185000X-0.135000X0.185000X0.135000X-0.185000X0.135000X-0.185000X-0.135000X0*%
%ADD28RoundRect,0.140000X0.140000X0.170000X-0.140000X0.170000X-0.140000X-0.170000X0.140000X-0.170000X0*%
%ADD29RoundRect,0.135000X-0.135000X-0.185000X0.135000X-0.185000X0.135000X0.185000X-0.135000X0.185000X0*%
%ADD30RoundRect,0.062500X-0.185616X-0.274004X0.274004X0.185616X0.185616X0.274004X-0.274004X-0.185616X0*%
%ADD31RoundRect,0.062500X0.185616X-0.274004X0.274004X-0.185616X-0.185616X0.274004X-0.274004X0.185616X0*%
%ADD32RotRect,2.450000X2.450000X45.000000*%
%ADD33RoundRect,0.225000X0.250000X-0.225000X0.250000X0.225000X-0.250000X0.225000X-0.250000X-0.225000X0*%
%ADD34RoundRect,0.225000X0.225000X0.250000X-0.225000X0.250000X-0.225000X-0.250000X0.225000X-0.250000X0*%
%ADD35RoundRect,0.140000X-0.170000X0.140000X-0.170000X-0.140000X0.170000X-0.140000X0.170000X0.140000X0*%
%ADD36RoundRect,0.140000X0.170000X-0.140000X0.170000X0.140000X-0.170000X0.140000X-0.170000X-0.140000X0*%
%ADD37RoundRect,0.140000X-0.140000X-0.170000X0.140000X-0.170000X0.140000X0.170000X-0.140000X0.170000X0*%
%ADD38RoundRect,0.225000X-0.250000X0.225000X-0.250000X-0.225000X0.250000X-0.225000X0.250000X0.225000X0*%
%ADD39RoundRect,0.135000X0.135000X0.185000X-0.135000X0.185000X-0.135000X-0.185000X0.135000X-0.185000X0*%
%ADD40RoundRect,0.225000X-0.225000X-0.250000X0.225000X-0.250000X0.225000X0.250000X-0.225000X0.250000X0*%
%ADD41FreePoly0,90.000000*%
%ADD42RoundRect,0.050000X0.050000X-0.350000X0.050000X0.350000X-0.050000X0.350000X-0.050000X-0.350000X0*%
%ADD43FreePoly1,90.000000*%
%ADD44FreePoly2,90.000000*%
%ADD45RoundRect,0.050000X0.350000X-0.050000X0.350000X0.050000X-0.350000X0.050000X-0.350000X-0.050000X0*%
%ADD46FreePoly3,90.000000*%
%ADD47FreePoly4,90.000000*%
%ADD48FreePoly5,90.000000*%
%ADD49FreePoly6,90.000000*%
%ADD50FreePoly7,90.000000*%
%ADD51R,2.650000X2.650000*%
%ADD52RoundRect,0.140000X-0.021213X0.219203X-0.219203X0.021213X0.021213X-0.219203X0.219203X-0.021213X0*%
%ADD53RoundRect,0.150000X-0.512500X-0.150000X0.512500X-0.150000X0.512500X0.150000X-0.512500X0.150000X0*%
%ADD54RoundRect,0.250000X-0.450000X-0.350000X0.450000X-0.350000X0.450000X0.350000X-0.450000X0.350000X0*%
G04 APERTURE END LIST*
D10*
%TO.C,JP2*%
X175006000Y-111333000D03*
D11*
X175006000Y-108793000D03*
%TD*%
%TO.C,J10*%
X114305000Y-100030000D03*
X116845000Y-100030000D03*
X119385000Y-100030000D03*
X121925000Y-100030000D03*
X124465000Y-100030000D03*
X127005000Y-100030000D03*
X129545000Y-100030000D03*
X132085000Y-100030000D03*
X134625000Y-100030000D03*
X137165000Y-100030000D03*
X139705000Y-100030000D03*
X142245000Y-100030000D03*
X144785000Y-100030000D03*
X147325000Y-100030000D03*
X149865000Y-100030000D03*
X152405000Y-100030000D03*
X154945000Y-100030000D03*
X157485000Y-100030000D03*
X160025000Y-100030000D03*
%TD*%
%TO.C,J8*%
X126995000Y-122890000D03*
X129535000Y-122890000D03*
%TD*%
D12*
%TO.C,REF\u002A\u002A*%
X177800000Y-125430000D03*
%TD*%
D13*
%TO.C,J17*%
X176372000Y-117878500D03*
D14*
X182372000Y-117878500D03*
D15*
X179372000Y-113178500D03*
%TD*%
D11*
%TO.C,J6*%
X114305000Y-97490000D03*
X116845000Y-97490000D03*
X119385000Y-97490000D03*
X121925000Y-97490000D03*
X124465000Y-97490000D03*
X127005000Y-97490000D03*
X129545000Y-97490000D03*
X132085000Y-97490000D03*
X134625000Y-97490000D03*
X137165000Y-97490000D03*
X139705000Y-97490000D03*
X142245000Y-97490000D03*
X144785000Y-97490000D03*
X147325000Y-97490000D03*
X149865000Y-97490000D03*
X152405000Y-97490000D03*
X154945000Y-97490000D03*
X157485000Y-97490000D03*
X160025000Y-97490000D03*
%TD*%
D10*
%TO.C,JP3*%
X171246800Y-101330400D03*
D11*
X171246800Y-98790400D03*
%TD*%
D16*
%TO.C,J13*%
X111384600Y-77424000D03*
D17*
X111384600Y-79924000D03*
X111384600Y-81924000D03*
X111384600Y-84424000D03*
X108764600Y-77424000D03*
X108764600Y-79924000D03*
X108764600Y-81924000D03*
X108764600Y-84424000D03*
D18*
X111734600Y-74354000D03*
X106054600Y-74354000D03*
X111734600Y-87494000D03*
X106054600Y-87494000D03*
%TD*%
D10*
%TO.C,J16*%
X163830000Y-126700000D03*
D11*
X166370000Y-126700000D03*
X168910000Y-126700000D03*
X171450000Y-126700000D03*
%TD*%
D19*
%TO.C,J3*%
X179742000Y-102920000D03*
X179742000Y-97140000D03*
D20*
X179242000Y-104350000D03*
D21*
X183422000Y-104350000D03*
D20*
X179242000Y-95710000D03*
D21*
X183422000Y-95710000D03*
%TD*%
D11*
%TO.C,J15*%
X114305000Y-107650000D03*
X116845000Y-107650000D03*
X119385000Y-107650000D03*
X121925000Y-107650000D03*
X124465000Y-107650000D03*
X127005000Y-107650000D03*
X129545000Y-107650000D03*
X132085000Y-107650000D03*
X134625000Y-107650000D03*
X137165000Y-107650000D03*
X139705000Y-107650000D03*
X142245000Y-107650000D03*
X144785000Y-107650000D03*
X147325000Y-107650000D03*
X149865000Y-107650000D03*
X152405000Y-107650000D03*
X154945000Y-107650000D03*
X157485000Y-107650000D03*
X160025000Y-107650000D03*
%TD*%
%TO.C,J11*%
X114305000Y-105110000D03*
X116845000Y-105110000D03*
X119385000Y-105110000D03*
X121925000Y-105110000D03*
X124465000Y-105110000D03*
X127005000Y-105110000D03*
X129545000Y-105110000D03*
X132085000Y-105110000D03*
X134625000Y-105110000D03*
X137165000Y-105110000D03*
X139705000Y-105110000D03*
X142245000Y-105110000D03*
X144785000Y-105110000D03*
X147325000Y-105110000D03*
X149865000Y-105110000D03*
X152405000Y-105110000D03*
X154945000Y-105110000D03*
X157485000Y-105110000D03*
X160025000Y-105110000D03*
%TD*%
D22*
%TO.C,J19*%
X179070000Y-76027000D03*
X179070000Y-87457000D03*
D23*
X170180000Y-87462000D03*
D17*
X172720000Y-86192000D03*
X170180000Y-84922000D03*
X172720000Y-83652000D03*
X170180000Y-82382000D03*
X170180000Y-79842000D03*
X172720000Y-78572000D03*
X170180000Y-77302000D03*
X172720000Y-76032000D03*
X183150000Y-88367000D03*
X183150000Y-85827000D03*
X183150000Y-77657000D03*
X183150000Y-75117000D03*
D24*
X176020000Y-73997000D03*
X176020000Y-89487000D03*
%TD*%
D25*
%TO.C,SW2*%
X183667400Y-72411600D03*
X183667400Y-68161600D03*
%TD*%
D12*
%TO.C,REF\u002A\u002A*%
X106680000Y-69550000D03*
%TD*%
D25*
%TO.C,SW1*%
X183642000Y-112315000D03*
X183642000Y-108065000D03*
%TD*%
D11*
%TO.C,J7*%
X114305000Y-102570000D03*
X116845000Y-102570000D03*
X119385000Y-102570000D03*
X121925000Y-102570000D03*
X124465000Y-102570000D03*
X127005000Y-102570000D03*
X129545000Y-102570000D03*
X132085000Y-102570000D03*
X134625000Y-102570000D03*
X137165000Y-102570000D03*
X139705000Y-102570000D03*
X142245000Y-102570000D03*
X144785000Y-102570000D03*
X147325000Y-102570000D03*
X149865000Y-102570000D03*
X152405000Y-102570000D03*
X154945000Y-102570000D03*
X157485000Y-102570000D03*
X160025000Y-102570000D03*
%TD*%
%TO.C,J12*%
X114305000Y-94950000D03*
X116845000Y-94950000D03*
X119385000Y-94950000D03*
X121925000Y-94950000D03*
X124465000Y-94950000D03*
X127005000Y-94950000D03*
X129545000Y-94950000D03*
X132085000Y-94950000D03*
X134625000Y-94950000D03*
X137165000Y-94950000D03*
X139705000Y-94950000D03*
X142245000Y-94950000D03*
X144785000Y-94950000D03*
X147325000Y-94950000D03*
X149865000Y-94950000D03*
X152405000Y-94950000D03*
X154945000Y-94950000D03*
X157485000Y-94950000D03*
X160025000Y-94950000D03*
%TD*%
%TO.C,J20*%
X105415000Y-100030000D03*
X107955000Y-100030000D03*
X105415000Y-102570000D03*
X107955000Y-102570000D03*
X105415000Y-105110000D03*
X107955000Y-105110000D03*
X105415000Y-107650000D03*
X107955000Y-107650000D03*
%TD*%
%TO.C,J21*%
X124465000Y-126700000D03*
X121925000Y-126700000D03*
X119385000Y-126700000D03*
X116845000Y-126700000D03*
X114305000Y-126700000D03*
X111765000Y-126700000D03*
%TD*%
D12*
%TO.C,REF\u002A\u002A*%
X177800000Y-69550000D03*
%TD*%
D10*
%TO.C,J1*%
X165100000Y-98760000D03*
D11*
X167640000Y-98760000D03*
X165100000Y-101300000D03*
X167640000Y-101300000D03*
%TD*%
D10*
%TO.C,J18*%
X125730000Y-79075000D03*
D11*
X125730000Y-81615000D03*
X123190000Y-79075000D03*
X123190000Y-81615000D03*
X120650000Y-79075000D03*
X120650000Y-81615000D03*
X118110000Y-79075000D03*
X118110000Y-81615000D03*
X115570000Y-79075000D03*
X115570000Y-81615000D03*
%TD*%
D12*
%TO.C,REF\u002A\u002A*%
X106680000Y-125430000D03*
%TD*%
D11*
%TO.C,J5*%
X111760000Y-120350000D03*
X114300000Y-120350000D03*
X116840000Y-120350000D03*
X119380000Y-120350000D03*
X121920000Y-120350000D03*
X124460000Y-120350000D03*
X127000000Y-120350000D03*
X129540000Y-120350000D03*
X132080000Y-120350000D03*
X134620000Y-120350000D03*
X137160000Y-120350000D03*
X139700000Y-120350000D03*
X142240000Y-120350000D03*
X144780000Y-120350000D03*
X147320000Y-120350000D03*
X149860000Y-120350000D03*
X152400000Y-120350000D03*
X154940000Y-120350000D03*
X157480000Y-120350000D03*
X160020000Y-120350000D03*
%TD*%
D26*
%TO.C,R105*%
X140244750Y-117046000D03*
X140244750Y-118066000D03*
%TD*%
D27*
%TO.C,R84*%
X139674600Y-116110200D03*
X139674600Y-115090200D03*
%TD*%
D26*
%TO.C,R62*%
X139192000Y-117046000D03*
X139192000Y-118066000D03*
%TD*%
%TO.C,R58*%
X129000250Y-117046000D03*
X129000250Y-118066000D03*
%TD*%
D28*
%TO.C,C13*%
X133570800Y-82241200D03*
X132610800Y-82241200D03*
%TD*%
D26*
%TO.C,R52*%
X113665000Y-117046000D03*
X113665000Y-118066000D03*
%TD*%
%TO.C,R32*%
X163426900Y-77599800D03*
X163426900Y-78619800D03*
%TD*%
D29*
%TO.C,R11*%
X166345900Y-80014800D03*
X167365900Y-80014800D03*
%TD*%
D26*
%TO.C,R51*%
X111252000Y-117046000D03*
X111252000Y-118066000D03*
%TD*%
D30*
%TO.C,U5*%
X106996709Y-115767767D03*
X106643155Y-115414214D03*
X106289602Y-115060660D03*
X105936049Y-114707107D03*
X105582494Y-114353553D03*
X105228942Y-114000000D03*
D31*
X105228942Y-112957018D03*
X105582495Y-112603464D03*
X105936049Y-112249911D03*
X106289602Y-111896358D03*
X106643156Y-111542803D03*
X106996709Y-111189251D03*
D30*
X108039691Y-111189251D03*
X108393245Y-111542804D03*
X108746798Y-111896358D03*
X109100351Y-112249911D03*
X109453906Y-112603465D03*
X109807458Y-112957018D03*
D31*
X109807458Y-114000000D03*
X109453905Y-114353554D03*
X109100351Y-114707107D03*
X108746798Y-115060660D03*
X108393244Y-115414215D03*
X108039691Y-115767767D03*
D32*
X107518200Y-113478509D03*
%TD*%
D27*
%TO.C,R85*%
X142214600Y-116110200D03*
X142214600Y-115090200D03*
%TD*%
D26*
%TO.C,R108*%
X147849000Y-117046000D03*
X147849000Y-118066000D03*
%TD*%
D33*
%TO.C,C1*%
X143244400Y-80346200D03*
X143244400Y-78796200D03*
%TD*%
D26*
%TO.C,R7*%
X135653600Y-90011600D03*
X135653600Y-91031600D03*
%TD*%
D34*
%TO.C,C58*%
X163462000Y-116286000D03*
X161912000Y-116286000D03*
%TD*%
D27*
%TO.C,R87*%
X147294600Y-116110200D03*
X147294600Y-115090200D03*
%TD*%
D28*
%TO.C,C22*%
X143874200Y-87076602D03*
X142914200Y-87076602D03*
%TD*%
D35*
%TO.C,C29*%
X143244400Y-91397200D03*
X143244400Y-92357200D03*
%TD*%
%TO.C,C26*%
X136669600Y-90912002D03*
X136669600Y-91872002D03*
%TD*%
D27*
%TO.C,R79*%
X126974600Y-116110200D03*
X126974600Y-115090200D03*
%TD*%
D26*
%TO.C,R111*%
X155453250Y-117046000D03*
X155453250Y-118066000D03*
%TD*%
D27*
%TO.C,R76*%
X119354600Y-116110200D03*
X119354600Y-115090200D03*
%TD*%
D34*
%TO.C,C46*%
X123330000Y-88854000D03*
X121780000Y-88854000D03*
%TD*%
%TO.C,C24*%
X143994000Y-85781202D03*
X142444000Y-85781202D03*
%TD*%
D35*
%TO.C,C31*%
X139688400Y-91298200D03*
X139688400Y-92258200D03*
%TD*%
%TO.C,C4*%
X139942400Y-80018000D03*
X139942400Y-80978000D03*
%TD*%
%TO.C,C5*%
X136742000Y-80018000D03*
X136742000Y-80978000D03*
%TD*%
D36*
%TO.C,C16*%
X145759000Y-85372202D03*
X145759000Y-84412202D03*
%TD*%
D37*
%TO.C,C17*%
X146856400Y-87229002D03*
X147816400Y-87229002D03*
%TD*%
D27*
%TO.C,R2*%
X145530400Y-79486002D03*
X145530400Y-78466002D03*
%TD*%
D28*
%TO.C,C48*%
X123543000Y-90124000D03*
X122583000Y-90124000D03*
%TD*%
D26*
%TO.C,R55*%
X121412000Y-117046000D03*
X121412000Y-118066000D03*
%TD*%
D38*
%TO.C,C2*%
X138037400Y-79926200D03*
X138037400Y-81476200D03*
%TD*%
D26*
%TO.C,R95*%
X114712500Y-117046000D03*
X114712500Y-118066000D03*
%TD*%
D37*
%TO.C,C6*%
X134512000Y-83698400D03*
X135472000Y-83698400D03*
%TD*%
D39*
%TO.C,R17*%
X107647100Y-93934000D03*
X106627100Y-93934000D03*
%TD*%
D27*
%TO.C,R88*%
X149834600Y-116110200D03*
X149834600Y-115090200D03*
%TD*%
%TO.C,R24*%
X140817600Y-92031000D03*
X140817600Y-91011000D03*
%TD*%
D26*
%TO.C,R97*%
X119888000Y-117046000D03*
X119888000Y-118066000D03*
%TD*%
D39*
%TO.C,R18*%
X107647100Y-90505000D03*
X106627100Y-90505000D03*
%TD*%
%TO.C,R33*%
X183517000Y-81665800D03*
X182497000Y-81665800D03*
%TD*%
D26*
%TO.C,R69*%
X156965857Y-117046000D03*
X156965857Y-118066000D03*
%TD*%
D27*
%TO.C,R73*%
X104780000Y-118815000D03*
X104780000Y-117795000D03*
%TD*%
D26*
%TO.C,R64*%
X144235143Y-117046000D03*
X144235143Y-118066000D03*
%TD*%
%TO.C,R109*%
X150383750Y-117046000D03*
X150383750Y-118066000D03*
%TD*%
%TO.C,R68*%
X154419714Y-117046000D03*
X154419714Y-118066000D03*
%TD*%
%TO.C,R56*%
X123952000Y-117046000D03*
X123952000Y-118066000D03*
%TD*%
%TO.C,R98*%
X122428000Y-117046000D03*
X122428000Y-118066000D03*
%TD*%
%TO.C,R100*%
X127508000Y-117046000D03*
X127508000Y-118066000D03*
%TD*%
D35*
%TO.C,C27*%
X138672400Y-90508200D03*
X138672400Y-91468200D03*
%TD*%
D27*
%TO.C,R80*%
X129514600Y-116110200D03*
X129514600Y-115090200D03*
%TD*%
D26*
%TO.C,R61*%
X136652000Y-117046000D03*
X136652000Y-118066000D03*
%TD*%
D34*
%TO.C,C47*%
X123330000Y-91394000D03*
X121780000Y-91394000D03*
%TD*%
D36*
%TO.C,C20*%
X138767400Y-88186200D03*
X138767400Y-87226200D03*
%TD*%
D26*
%TO.C,R65*%
X146781286Y-117046000D03*
X146781286Y-118066000D03*
%TD*%
D27*
%TO.C,R77*%
X121894600Y-116110200D03*
X121894600Y-115090200D03*
%TD*%
D26*
%TO.C,R53*%
X116332000Y-117046000D03*
X116332000Y-118066000D03*
%TD*%
%TO.C,R1*%
X133520000Y-78429200D03*
X133520000Y-79449200D03*
%TD*%
%TO.C,R72*%
X159258000Y-112728000D03*
X159258000Y-113748000D03*
%TD*%
D35*
%TO.C,C23*%
X137656400Y-90508200D03*
X137656400Y-91468200D03*
%TD*%
D26*
%TO.C,R110*%
X152918500Y-117046000D03*
X152918500Y-118066000D03*
%TD*%
D40*
%TO.C,C59*%
X163182000Y-111206000D03*
X164732000Y-111206000D03*
%TD*%
D28*
%TO.C,C11*%
X133565600Y-81225200D03*
X132605600Y-81225200D03*
%TD*%
D26*
%TO.C,R107*%
X145314250Y-117046000D03*
X145314250Y-118066000D03*
%TD*%
D36*
%TO.C,C41*%
X166728900Y-88368800D03*
X166728900Y-87408800D03*
%TD*%
D27*
%TO.C,R92*%
X160020000Y-110954000D03*
X160020000Y-109934000D03*
%TD*%
D39*
%TO.C,R16*%
X107393100Y-97363000D03*
X106373100Y-97363000D03*
%TD*%
D26*
%TO.C,R113*%
X160522750Y-117046000D03*
X160522750Y-118066000D03*
%TD*%
%TO.C,R54*%
X118872000Y-117046000D03*
X118872000Y-118066000D03*
%TD*%
D33*
%TO.C,C8*%
X146927400Y-80117002D03*
X146927400Y-78567002D03*
%TD*%
D39*
%TO.C,R5*%
X152132000Y-87201502D03*
X151112000Y-87201502D03*
%TD*%
D28*
%TO.C,C9*%
X143851400Y-81539402D03*
X142891400Y-81539402D03*
%TD*%
%TO.C,C10*%
X143851400Y-82530002D03*
X142891400Y-82530002D03*
%TD*%
D26*
%TO.C,R66*%
X149327429Y-117046000D03*
X149327429Y-118066000D03*
%TD*%
D36*
%TO.C,C19*%
X137767400Y-88166200D03*
X137767400Y-87206200D03*
%TD*%
D26*
%TO.C,R63*%
X141689000Y-117046000D03*
X141689000Y-118066000D03*
%TD*%
D39*
%TO.C,R34*%
X181918800Y-72572600D03*
X180898800Y-72572600D03*
%TD*%
D26*
%TO.C,R13*%
X162410900Y-77599800D03*
X162410900Y-78619800D03*
%TD*%
%TO.C,R70*%
X159512000Y-117046000D03*
X159512000Y-118066000D03*
%TD*%
D27*
%TO.C,R75*%
X116814600Y-116110200D03*
X116814600Y-115090200D03*
%TD*%
D26*
%TO.C,R103*%
X135128000Y-117046000D03*
X135128000Y-118066000D03*
%TD*%
D37*
%TO.C,C30*%
X151162800Y-88217502D03*
X152122800Y-88217502D03*
%TD*%
D26*
%TO.C,R106*%
X142779500Y-117046000D03*
X142779500Y-118066000D03*
%TD*%
D41*
%TO.C,U4*%
X164258400Y-84631800D03*
D42*
X163858400Y-84631800D03*
X163458400Y-84631800D03*
X163058400Y-84631800D03*
X162658400Y-84631800D03*
X162258400Y-84631800D03*
X161858400Y-84631800D03*
D43*
X161458400Y-84631800D03*
D44*
X160908400Y-84081800D03*
D45*
X160908400Y-83681800D03*
X160908400Y-83281800D03*
X160908400Y-82881800D03*
X160908400Y-82481800D03*
X160908400Y-82081800D03*
X160908400Y-81681800D03*
D46*
X160908400Y-81281800D03*
D47*
X161458400Y-80731800D03*
D42*
X161858400Y-80731800D03*
X162258400Y-80731800D03*
X162658400Y-80731800D03*
X163058400Y-80731800D03*
X163458400Y-80731800D03*
X163858400Y-80731800D03*
D48*
X164258400Y-80731800D03*
D49*
X164808400Y-81281800D03*
D45*
X164808400Y-81681800D03*
X164808400Y-82081800D03*
X164808400Y-82481800D03*
X164808400Y-82881800D03*
X164808400Y-83281800D03*
X164808400Y-83681800D03*
D50*
X164808400Y-84081800D03*
D51*
X162858400Y-82681800D03*
%TD*%
D27*
%TO.C,R86*%
X144754600Y-116110200D03*
X144754600Y-115090200D03*
%TD*%
D26*
%TO.C,R112*%
X157988000Y-117046000D03*
X157988000Y-118066000D03*
%TD*%
%TO.C,R57*%
X126492000Y-117046000D03*
X126492000Y-118066000D03*
%TD*%
%TO.C,R99*%
X124968000Y-117046000D03*
X124968000Y-118066000D03*
%TD*%
%TO.C,R67*%
X151873571Y-117046000D03*
X151873571Y-118066000D03*
%TD*%
D27*
%TO.C,R81*%
X132054600Y-116110200D03*
X132054600Y-115090200D03*
%TD*%
D26*
%TO.C,R59*%
X131556125Y-117046000D03*
X131556125Y-118066000D03*
%TD*%
D36*
%TO.C,C18*%
X136767400Y-88166200D03*
X136767400Y-87206200D03*
%TD*%
D10*
%TO.C,J4*%
X115570000Y-74930000D03*
D11*
X118110000Y-74930000D03*
X120650000Y-74930000D03*
X123190000Y-74930000D03*
X125730000Y-74930000D03*
X128270000Y-74930000D03*
X130810000Y-74930000D03*
X133350000Y-74930000D03*
X135890000Y-74930000D03*
X138430000Y-74930000D03*
%TD*%
D27*
%TO.C,R91*%
X157454600Y-116110200D03*
X157454600Y-115090200D03*
%TD*%
D36*
%TO.C,C3*%
X141593400Y-80546200D03*
X141593400Y-79586200D03*
%TD*%
D26*
%TO.C,R102*%
X132588000Y-117046000D03*
X132588000Y-118066000D03*
%TD*%
%TO.C,R50*%
X164465000Y-77599800D03*
X164465000Y-78619800D03*
%TD*%
D52*
%TO.C,C60*%
X109903822Y-115861178D03*
X109225000Y-116540000D03*
%TD*%
D29*
%TO.C,R71*%
X164590000Y-112857000D03*
X165610000Y-112857000D03*
%TD*%
D26*
%TO.C,R94*%
X112268000Y-117046000D03*
X112268000Y-118066000D03*
%TD*%
%TO.C,R104*%
X137668000Y-117046000D03*
X137668000Y-118066000D03*
%TD*%
D10*
%TO.C,J2*%
X142240000Y-74930000D03*
D11*
X144780000Y-74930000D03*
X147320000Y-74930000D03*
X149860000Y-74930000D03*
X152400000Y-74930000D03*
X154940000Y-74930000D03*
X157480000Y-74930000D03*
X160020000Y-74930000D03*
%TD*%
D26*
%TO.C,R96*%
X117348000Y-117046000D03*
X117348000Y-118066000D03*
%TD*%
D27*
%TO.C,R78*%
X124434600Y-116110200D03*
X124434600Y-115090200D03*
%TD*%
%TO.C,R90*%
X154914600Y-116110200D03*
X154914600Y-115090200D03*
%TD*%
%TO.C,R74*%
X114274600Y-116110200D03*
X114274600Y-115090200D03*
%TD*%
D28*
%TO.C,C32*%
X143874200Y-88092602D03*
X142914200Y-88092602D03*
%TD*%
D26*
%TO.C,R60*%
X134112000Y-117046000D03*
X134112000Y-118066000D03*
%TD*%
D35*
%TO.C,C42*%
X161394900Y-87408800D03*
X161394900Y-88368800D03*
%TD*%
D53*
%TO.C,U11*%
X160914500Y-114696000D03*
X160914500Y-113746000D03*
X160914500Y-112796000D03*
X163189500Y-112796000D03*
X163189500Y-114696000D03*
%TD*%
D28*
%TO.C,C7*%
X145648000Y-80522000D03*
X144688000Y-80522000D03*
%TD*%
D27*
%TO.C,R89*%
X152374600Y-116110200D03*
X152374600Y-115090200D03*
%TD*%
D54*
%TO.C,Y2*%
X162961900Y-87038800D03*
X165161900Y-87038800D03*
X165161900Y-88738800D03*
X162961900Y-88738800D03*
%TD*%
D27*
%TO.C,R6*%
X153277400Y-88247002D03*
X153277400Y-87227002D03*
%TD*%
D29*
%TO.C,R12*%
X165202900Y-85602800D03*
X166222900Y-85602800D03*
%TD*%
D27*
%TO.C,R82*%
X134594600Y-116110200D03*
X134594600Y-115090200D03*
%TD*%
D37*
%TO.C,C43*%
X178132800Y-83418400D03*
X179092800Y-83418400D03*
%TD*%
D11*
%TO.C,J9*%
X147320000Y-122890000D03*
X149860000Y-122890000D03*
X152400000Y-122890000D03*
X154940000Y-122890000D03*
X157480000Y-122890000D03*
X160020000Y-122890000D03*
%TD*%
D36*
%TO.C,C15*%
X145733600Y-83261402D03*
X145733600Y-82301402D03*
%TD*%
D26*
%TO.C,R101*%
X130048000Y-117046000D03*
X130048000Y-118066000D03*
%TD*%
D27*
%TO.C,R83*%
X137134600Y-116110200D03*
X137134600Y-115090200D03*
%TD*%
M02*
