%TF.GenerationSoftware,KiCad,Pcbnew,10.0.2*%
%TF.CreationDate,2026-05-11T15:16:24-07:00*%
%TF.ProjectId,p4hil,70346869-6c2e-46b6-9963-61645f706362,rev?*%
%TF.SameCoordinates,Original*%
%TF.FileFunction,Soldermask,Top*%
%TF.FilePolarity,Negative*%
%FSLAX46Y46*%
G04 Gerber Fmt 4.6, Leading zero omitted, Abs format (unit mm)*
G04 Created by KiCad (PCBNEW 10.0.2) date 2026-05-11 15:16:24*
%MOMM*%
%LPD*%
G01*
G04 APERTURE LIST*
G04 Aperture macros list*
%AMRoundRect*
0 Rectangle with rounded corners*
0 $1 Rounding radius*
0 $2 $3 $4 $5 $6 $7 $8 $9 X,Y pos of 4 corners*
0 Add a 4 corners polygon primitive as box body*
4,1,4,$2,$3,$4,$5,$6,$7,$8,$9,$2,$3,0*
0 Add four circle primitives for the rounded corners*
1,1,$1+$1,$2,$3*
1,1,$1+$1,$4,$5*
1,1,$1+$1,$6,$7*
1,1,$1+$1,$8,$9*
0 Add four rect primitives between the rounded corners*
20,1,$1+$1,$2,$3,$4,$5,0*
20,1,$1+$1,$4,$5,$6,$7,0*
20,1,$1+$1,$6,$7,$8,$9,0*
20,1,$1+$1,$8,$9,$2,$3,0*%
G04 Aperture macros list end*
%ADD10C,0.010000*%
%ADD11RoundRect,0.150000X-0.825000X-0.150000X0.825000X-0.150000X0.825000X0.150000X-0.825000X0.150000X0*%
%ADD12R,1.700000X1.700000*%
%ADD13C,1.700000*%
%ADD14RoundRect,0.140000X0.140000X0.170000X-0.140000X0.170000X-0.140000X-0.170000X0.140000X-0.170000X0*%
%ADD15RoundRect,0.135000X-0.135000X-0.185000X0.135000X-0.185000X0.135000X0.185000X-0.135000X0.185000X0*%
%ADD16RoundRect,0.135000X0.135000X0.185000X-0.135000X0.185000X-0.135000X-0.185000X0.135000X-0.185000X0*%
%ADD17RoundRect,0.135000X-0.185000X0.135000X-0.185000X-0.135000X0.185000X-0.135000X0.185000X0.135000X0*%
%ADD18RoundRect,0.218750X-0.218750X-0.256250X0.218750X-0.256250X0.218750X0.256250X-0.218750X0.256250X0*%
%ADD19C,4.600000*%
%ADD20RoundRect,0.150000X0.150000X0.200000X-0.150000X0.200000X-0.150000X-0.200000X0.150000X-0.200000X0*%
%ADD21RoundRect,0.140000X0.170000X-0.140000X0.170000X0.140000X-0.170000X0.140000X-0.170000X-0.140000X0*%
%ADD22R,3.500000X3.500000*%
%ADD23RoundRect,0.750000X0.750000X1.000000X-0.750000X1.000000X-0.750000X-1.000000X0.750000X-1.000000X0*%
%ADD24RoundRect,0.875000X0.875000X0.875000X-0.875000X0.875000X-0.875000X-0.875000X0.875000X-0.875000X0*%
%ADD25RoundRect,0.250000X0.375000X0.850000X-0.375000X0.850000X-0.375000X-0.850000X0.375000X-0.850000X0*%
%ADD26RoundRect,0.063000X-0.587000X-0.147000X0.587000X-0.147000X0.587000X0.147000X-0.587000X0.147000X0*%
%ADD27RoundRect,0.135000X0.035355X-0.226274X0.226274X-0.035355X-0.035355X0.226274X-0.226274X0.035355X0*%
%ADD28RoundRect,0.140000X-0.140000X-0.170000X0.140000X-0.170000X0.140000X0.170000X-0.140000X0.170000X0*%
%ADD29RoundRect,0.250000X-0.500000X0.500000X-0.500000X-0.500000X0.500000X-0.500000X0.500000X0.500000X0*%
%ADD30C,1.500000*%
%ADD31C,3.000000*%
%ADD32RoundRect,0.225000X-0.225000X-0.250000X0.225000X-0.250000X0.225000X0.250000X-0.225000X0.250000X0*%
%ADD33C,0.600000*%
%ADD34RoundRect,0.150000X0.420000X-0.150000X0.420000X0.150000X-0.420000X0.150000X-0.420000X-0.150000X0*%
%ADD35RoundRect,0.075000X0.495000X-0.075000X0.495000X0.075000X-0.495000X0.075000X-0.495000X-0.075000X0*%
%ADD36O,2.000000X0.900000*%
%ADD37O,1.700000X0.900000*%
%ADD38RoundRect,0.225000X0.250000X-0.225000X0.250000X0.225000X-0.250000X0.225000X-0.250000X-0.225000X0*%
%ADD39RoundRect,0.250500X0.499500X-0.499500X0.499500X0.499500X-0.499500X0.499500X-0.499500X-0.499500X0*%
%ADD40C,2.500000*%
%ADD41RoundRect,0.140000X-0.170000X0.140000X-0.170000X-0.140000X0.170000X-0.140000X0.170000X0.140000X0*%
%ADD42RoundRect,0.225000X-0.250000X0.225000X-0.250000X-0.225000X0.250000X-0.225000X0.250000X0.225000X0*%
%ADD43RoundRect,0.200000X-0.200000X0.250000X-0.200000X-0.250000X0.200000X-0.250000X0.200000X0.250000X0*%
%ADD44RoundRect,0.250000X-1.425000X0.362500X-1.425000X-0.362500X1.425000X-0.362500X1.425000X0.362500X0*%
%ADD45RoundRect,0.150000X-0.512500X-0.150000X0.512500X-0.150000X0.512500X0.150000X-0.512500X0.150000X0*%
%ADD46RoundRect,0.250000X0.350000X-0.450000X0.350000X0.450000X-0.350000X0.450000X-0.350000X-0.450000X0*%
%ADD47RoundRect,0.187500X0.712500X-0.187500X0.712500X0.187500X-0.712500X0.187500X-0.712500X-0.187500X0*%
%ADD48RoundRect,0.150000X0.750000X-0.150000X0.750000X0.150000X-0.750000X0.150000X-0.750000X-0.150000X0*%
%ADD49RoundRect,0.225000X0.225000X-0.425000X0.225000X0.425000X-0.225000X0.425000X-0.225000X-0.425000X0*%
%ADD50RoundRect,0.150000X-0.625000X0.150000X-0.625000X-0.150000X0.625000X-0.150000X0.625000X0.150000X0*%
%ADD51RoundRect,0.250000X-0.650000X0.350000X-0.650000X-0.350000X0.650000X-0.350000X0.650000X0.350000X0*%
%ADD52RoundRect,0.135000X0.185000X-0.135000X0.185000X0.135000X-0.185000X0.135000X-0.185000X-0.135000X0*%
%ADD53RoundRect,0.225000X0.225000X0.250000X-0.225000X0.250000X-0.225000X-0.250000X0.225000X-0.250000X0*%
%ADD54O,0.200000X0.650000*%
%ADD55O,0.650000X0.200000*%
%ADD56R,2.100000X2.100000*%
%ADD57RoundRect,0.062500X-0.062500X0.350000X-0.062500X-0.350000X0.062500X-0.350000X0.062500X0.350000X0*%
%ADD58RoundRect,0.062500X-0.350000X0.062500X-0.350000X-0.062500X0.350000X-0.062500X0.350000X0.062500X0*%
%ADD59R,2.700000X2.700000*%
%ADD60RoundRect,0.218750X0.218750X0.256250X-0.218750X0.256250X-0.218750X-0.256250X0.218750X-0.256250X0*%
%ADD61RoundRect,0.125000X-0.125000X0.250000X-0.125000X-0.250000X0.125000X-0.250000X0.125000X0.250000X0*%
%ADD62R,4.300000X3.400000*%
G04 APERTURE END LIST*
D10*
%TO.C,G\u002A\u002A\u002A*%
X111461564Y-123645271D02*
X111487508Y-123646488D01*
X111512124Y-123648595D01*
X111536568Y-123651681D01*
X111561999Y-123655837D01*
X111579168Y-123659069D01*
X111604517Y-123664313D01*
X111628699Y-123669924D01*
X111652431Y-123676132D01*
X111676429Y-123683164D01*
X111701412Y-123691250D01*
X111728095Y-123700618D01*
X111757196Y-123711498D01*
X111789433Y-123724118D01*
X111813820Y-123733936D01*
X111846200Y-123747238D01*
X111879073Y-123761047D01*
X111912715Y-123775494D01*
X111947404Y-123790708D01*
X111983417Y-123806820D01*
X112021031Y-123823959D01*
X112060524Y-123842255D01*
X112102172Y-123861839D01*
X112146253Y-123882840D01*
X112193044Y-123905389D01*
X112242822Y-123929615D01*
X112295864Y-123955648D01*
X112352448Y-123983619D01*
X112412850Y-124013657D01*
X112452459Y-124033436D01*
X112508490Y-124061404D01*
X112560559Y-124087279D01*
X112608988Y-124111209D01*
X112654102Y-124133343D01*
X112696224Y-124153830D01*
X112735679Y-124172819D01*
X112772790Y-124190457D01*
X112807881Y-124206895D01*
X112841276Y-124222280D01*
X112873299Y-124236762D01*
X112904273Y-124250489D01*
X112934524Y-124263610D01*
X112964374Y-124276274D01*
X112994148Y-124288629D01*
X113024169Y-124300825D01*
X113054761Y-124313009D01*
X113086249Y-124325331D01*
X113098029Y-124329892D01*
X113114479Y-124336261D01*
X113129757Y-124342205D01*
X113143184Y-124347460D01*
X113154085Y-124351759D01*
X113161780Y-124354837D01*
X113165479Y-124356374D01*
X113172453Y-124359501D01*
X113154374Y-124381146D01*
X113125873Y-124412827D01*
X113093092Y-124444893D01*
X113056528Y-124476967D01*
X113016680Y-124508672D01*
X112974044Y-124539630D01*
X112929117Y-124569464D01*
X112882398Y-124597796D01*
X112834384Y-124624249D01*
X112833143Y-124624898D01*
X112770462Y-124655677D01*
X112703875Y-124684709D01*
X112634059Y-124711797D01*
X112561691Y-124736741D01*
X112487448Y-124759345D01*
X112412008Y-124779410D01*
X112336046Y-124796739D01*
X112260242Y-124811134D01*
X112185271Y-124822396D01*
X112138876Y-124827783D01*
X112125122Y-124828864D01*
X112107842Y-124829713D01*
X112087936Y-124830329D01*
X112066304Y-124830713D01*
X112043847Y-124830865D01*
X112021465Y-124830784D01*
X112000058Y-124830470D01*
X111980527Y-124829924D01*
X111963772Y-124829145D01*
X111950693Y-124828133D01*
X111947771Y-124827803D01*
X111899644Y-124820101D01*
X111855278Y-124809442D01*
X111814693Y-124795833D01*
X111777913Y-124779281D01*
X111744956Y-124759793D01*
X111732357Y-124750808D01*
X111704485Y-124727111D01*
X111680707Y-124700997D01*
X111660783Y-124672136D01*
X111644472Y-124640199D01*
X111636275Y-124619296D01*
X111629956Y-124599987D01*
X111625438Y-124582431D01*
X111622478Y-124565095D01*
X111620830Y-124546448D01*
X111620252Y-124524961D01*
X111620248Y-124518593D01*
X111620385Y-124479576D01*
X111604590Y-124477957D01*
X111588795Y-124476339D01*
X111571736Y-124487946D01*
X111554676Y-124499553D01*
X111553971Y-124522534D01*
X111555042Y-124554744D01*
X111559967Y-124588431D01*
X111568445Y-124622588D01*
X111580179Y-124656208D01*
X111594870Y-124688285D01*
X111611657Y-124716962D01*
X111636193Y-124749774D01*
X111664306Y-124779339D01*
X111695984Y-124805649D01*
X111731212Y-124828697D01*
X111769975Y-124848476D01*
X111812260Y-124864978D01*
X111858051Y-124878197D01*
X111907335Y-124888126D01*
X111960098Y-124894756D01*
X111966165Y-124895288D01*
X111985351Y-124896440D01*
X112008266Y-124897063D01*
X112033833Y-124897181D01*
X112060974Y-124896821D01*
X112088613Y-124896010D01*
X112115672Y-124894773D01*
X112141074Y-124893135D01*
X112163742Y-124891124D01*
X112170696Y-124890353D01*
X112247758Y-124879672D01*
X112325900Y-124865752D01*
X112404359Y-124848807D01*
X112482372Y-124829049D01*
X112559179Y-124806691D01*
X112634018Y-124781945D01*
X112706126Y-124755024D01*
X112774742Y-124726141D01*
X112799519Y-124714800D01*
X112859409Y-124685174D01*
X112916890Y-124653605D01*
X112971644Y-124620323D01*
X113023355Y-124585560D01*
X113071708Y-124549548D01*
X113116385Y-124512519D01*
X113157071Y-124474703D01*
X113193449Y-124436332D01*
X113215167Y-124410539D01*
X113225329Y-124398158D01*
X113232981Y-124389607D01*
X113238308Y-124384697D01*
X113241493Y-124383240D01*
X113241730Y-124383285D01*
X113251725Y-124385780D01*
X113265746Y-124388610D01*
X113283003Y-124391661D01*
X113302705Y-124394818D01*
X113324062Y-124397969D01*
X113346283Y-124400997D01*
X113368576Y-124403789D01*
X113390152Y-124406231D01*
X113410220Y-124408208D01*
X113419762Y-124409012D01*
X113440511Y-124410203D01*
X113463492Y-124410670D01*
X113489009Y-124410395D01*
X113517366Y-124409358D01*
X113548869Y-124407543D01*
X113583823Y-124404929D01*
X113622531Y-124401500D01*
X113665300Y-124397236D01*
X113712433Y-124392119D01*
X113726981Y-124390471D01*
X113794135Y-124382370D01*
X113865732Y-124372916D01*
X113941583Y-124362144D01*
X114021497Y-124350088D01*
X114105283Y-124336784D01*
X114192750Y-124322265D01*
X114283708Y-124306566D01*
X114377966Y-124289722D01*
X114475333Y-124271769D01*
X114575619Y-124252740D01*
X114678632Y-124232670D01*
X114784183Y-124211594D01*
X114892080Y-124189547D01*
X115002133Y-124166564D01*
X115114152Y-124142679D01*
X115227945Y-124117926D01*
X115247352Y-124113657D01*
X115268975Y-124108927D01*
X115289593Y-124104482D01*
X115308624Y-124100445D01*
X115325484Y-124096935D01*
X115339589Y-124094074D01*
X115350356Y-124091982D01*
X115357202Y-124090780D01*
X115358629Y-124090585D01*
X115377403Y-124090642D01*
X115397267Y-124094479D01*
X115416974Y-124101639D01*
X115435279Y-124111666D01*
X115450935Y-124124103D01*
X115451424Y-124124581D01*
X115458801Y-124133057D01*
X115467869Y-124145486D01*
X115478370Y-124161394D01*
X115490044Y-124180306D01*
X115502631Y-124201748D01*
X115515871Y-124225247D01*
X115529504Y-124250328D01*
X115543272Y-124276518D01*
X115556913Y-124303341D01*
X115570169Y-124330324D01*
X115582780Y-124356993D01*
X115594485Y-124382874D01*
X115600472Y-124396666D01*
X115619315Y-124443939D01*
X115634317Y-124488460D01*
X115645473Y-124530204D01*
X115652779Y-124569151D01*
X115656234Y-124605277D01*
X115655833Y-124638560D01*
X115651574Y-124668977D01*
X115643922Y-124695272D01*
X115637352Y-124709166D01*
X115628051Y-124724192D01*
X115617218Y-124738659D01*
X115606050Y-124750874D01*
X115601947Y-124754590D01*
X115591394Y-124762757D01*
X115579999Y-124769968D01*
X115567387Y-124776298D01*
X115553185Y-124781822D01*
X115537021Y-124786616D01*
X115518521Y-124790756D01*
X115497313Y-124794316D01*
X115473022Y-124797373D01*
X115445277Y-124800002D01*
X115413703Y-124802278D01*
X115377928Y-124804277D01*
X115350162Y-124805554D01*
X115336605Y-124806088D01*
X115318894Y-124806715D01*
X115297714Y-124807415D01*
X115273747Y-124808168D01*
X115247677Y-124808951D01*
X115220188Y-124809745D01*
X115191962Y-124810528D01*
X115163684Y-124811281D01*
X115149381Y-124811648D01*
X115076719Y-124813565D01*
X115008484Y-124815528D01*
X114944266Y-124817558D01*
X114883652Y-124819674D01*
X114826233Y-124821897D01*
X114771597Y-124824247D01*
X114719333Y-124826745D01*
X114669031Y-124829410D01*
X114620279Y-124832262D01*
X114572667Y-124835322D01*
X114525783Y-124838611D01*
X114479217Y-124842147D01*
X114432557Y-124845952D01*
X114407943Y-124848059D01*
X114303434Y-124857875D01*
X114202971Y-124868858D01*
X114105873Y-124881149D01*
X114011460Y-124894888D01*
X113919053Y-124910215D01*
X113827972Y-124927270D01*
X113737536Y-124946195D01*
X113647066Y-124967128D01*
X113555882Y-124990210D01*
X113463303Y-125015582D01*
X113368651Y-125043384D01*
X113271245Y-125073757D01*
X113197210Y-125097897D01*
X113158363Y-125110856D01*
X113122412Y-125123038D01*
X113088965Y-125134626D01*
X113057630Y-125145802D01*
X113028014Y-125156748D01*
X112999726Y-125167647D01*
X112972374Y-125178682D01*
X112945565Y-125190035D01*
X112918908Y-125201888D01*
X112892011Y-125214425D01*
X112864481Y-125227827D01*
X112835927Y-125242277D01*
X112805956Y-125257959D01*
X112774176Y-125275053D01*
X112740196Y-125293743D01*
X112703624Y-125314212D01*
X112664066Y-125336641D01*
X112621132Y-125361213D01*
X112576724Y-125386788D01*
X112542306Y-125406624D01*
X112511607Y-125424252D01*
X112484175Y-125439919D01*
X112459562Y-125453873D01*
X112437318Y-125466363D01*
X112416993Y-125477636D01*
X112398136Y-125487941D01*
X112380299Y-125497525D01*
X112363031Y-125506636D01*
X112345882Y-125515523D01*
X112328404Y-125524433D01*
X112313048Y-125532162D01*
X112268259Y-125554051D01*
X112226576Y-125573225D01*
X112187282Y-125589930D01*
X112149658Y-125604415D01*
X112112986Y-125616927D01*
X112076550Y-125627716D01*
X112039629Y-125637028D01*
X112001508Y-125645111D01*
X111968955Y-125650979D01*
X111928308Y-125657412D01*
X111890878Y-125662468D01*
X111855278Y-125666258D01*
X111820120Y-125668896D01*
X111784020Y-125670492D01*
X111745589Y-125671158D01*
X111719171Y-125671149D01*
X111700939Y-125671012D01*
X111683766Y-125670835D01*
X111668402Y-125670630D01*
X111655598Y-125670407D01*
X111646102Y-125670178D01*
X111640667Y-125669955D01*
X111640552Y-125669947D01*
X111578121Y-125663765D01*
X111516537Y-125654409D01*
X111456390Y-125642029D01*
X111398264Y-125626776D01*
X111342747Y-125608800D01*
X111290426Y-125588253D01*
X111250886Y-125569875D01*
X111192028Y-125537716D01*
X111134684Y-125501002D01*
X111078906Y-125459788D01*
X111024747Y-125414130D01*
X110972259Y-125364086D01*
X110921494Y-125309710D01*
X110872504Y-125251060D01*
X110825342Y-125188192D01*
X110780060Y-125121161D01*
X110736710Y-125050024D01*
X110695344Y-124974837D01*
X110692377Y-124969140D01*
X110667001Y-124917703D01*
X110643334Y-124864393D01*
X110621132Y-124808569D01*
X110600147Y-124749594D01*
X110580134Y-124686827D01*
X110568818Y-124648234D01*
X110563630Y-124630002D01*
X110395124Y-124562030D01*
X110368054Y-124551076D01*
X110342329Y-124540600D01*
X110318297Y-124530746D01*
X110296304Y-124521662D01*
X110276699Y-124513491D01*
X110259827Y-124506380D01*
X110246038Y-124500474D01*
X110235676Y-124495918D01*
X110229091Y-124492859D01*
X110226628Y-124491441D01*
X110226619Y-124491409D01*
X110228385Y-124489437D01*
X110233507Y-124484490D01*
X110241724Y-124476808D01*
X110252775Y-124466629D01*
X110266396Y-124454189D01*
X110282327Y-124439728D01*
X110300305Y-124423482D01*
X110320069Y-124405690D01*
X110341357Y-124386590D01*
X110363906Y-124366419D01*
X110381438Y-124350777D01*
X110536257Y-124212794D01*
X110546116Y-124185558D01*
X110565546Y-124137507D01*
X110588344Y-124091631D01*
X110614790Y-124047513D01*
X110645162Y-124004736D01*
X110679739Y-123962883D01*
X110718801Y-123921536D01*
X110730039Y-123910515D01*
X110776198Y-123869250D01*
X110825975Y-123831069D01*
X110879189Y-123796064D01*
X110935659Y-123764324D01*
X110995203Y-123735941D01*
X111057639Y-123711004D01*
X111122785Y-123689605D01*
X111190460Y-123671835D01*
X111222057Y-123664972D01*
X111252501Y-123659050D01*
X111279739Y-123654407D01*
X111305186Y-123650888D01*
X111330256Y-123648335D01*
X111356364Y-123646592D01*
X111384925Y-123645501D01*
X111401067Y-123645143D01*
X111433136Y-123644853D01*
X111461564Y-123645271D01*
G36*
X111461564Y-123645271D02*
G01*
X111487508Y-123646488D01*
X111512124Y-123648595D01*
X111536568Y-123651681D01*
X111561999Y-123655837D01*
X111579168Y-123659069D01*
X111604517Y-123664313D01*
X111628699Y-123669924D01*
X111652431Y-123676132D01*
X111676429Y-123683164D01*
X111701412Y-123691250D01*
X111728095Y-123700618D01*
X111757196Y-123711498D01*
X111789433Y-123724118D01*
X111813820Y-123733936D01*
X111846200Y-123747238D01*
X111879073Y-123761047D01*
X111912715Y-123775494D01*
X111947404Y-123790708D01*
X111983417Y-123806820D01*
X112021031Y-123823959D01*
X112060524Y-123842255D01*
X112102172Y-123861839D01*
X112146253Y-123882840D01*
X112193044Y-123905389D01*
X112242822Y-123929615D01*
X112295864Y-123955648D01*
X112352448Y-123983619D01*
X112412850Y-124013657D01*
X112452459Y-124033436D01*
X112508490Y-124061404D01*
X112560559Y-124087279D01*
X112608988Y-124111209D01*
X112654102Y-124133343D01*
X112696224Y-124153830D01*
X112735679Y-124172819D01*
X112772790Y-124190457D01*
X112807881Y-124206895D01*
X112841276Y-124222280D01*
X112873299Y-124236762D01*
X112904273Y-124250489D01*
X112934524Y-124263610D01*
X112964374Y-124276274D01*
X112994148Y-124288629D01*
X113024169Y-124300825D01*
X113054761Y-124313009D01*
X113086249Y-124325331D01*
X113098029Y-124329892D01*
X113114479Y-124336261D01*
X113129757Y-124342205D01*
X113143184Y-124347460D01*
X113154085Y-124351759D01*
X113161780Y-124354837D01*
X113165479Y-124356374D01*
X113172453Y-124359501D01*
X113154374Y-124381146D01*
X113125873Y-124412827D01*
X113093092Y-124444893D01*
X113056528Y-124476967D01*
X113016680Y-124508672D01*
X112974044Y-124539630D01*
X112929117Y-124569464D01*
X112882398Y-124597796D01*
X112834384Y-124624249D01*
X112833143Y-124624898D01*
X112770462Y-124655677D01*
X112703875Y-124684709D01*
X112634059Y-124711797D01*
X112561691Y-124736741D01*
X112487448Y-124759345D01*
X112412008Y-124779410D01*
X112336046Y-124796739D01*
X112260242Y-124811134D01*
X112185271Y-124822396D01*
X112138876Y-124827783D01*
X112125122Y-124828864D01*
X112107842Y-124829713D01*
X112087936Y-124830329D01*
X112066304Y-124830713D01*
X112043847Y-124830865D01*
X112021465Y-124830784D01*
X112000058Y-124830470D01*
X111980527Y-124829924D01*
X111963772Y-124829145D01*
X111950693Y-124828133D01*
X111947771Y-124827803D01*
X111899644Y-124820101D01*
X111855278Y-124809442D01*
X111814693Y-124795833D01*
X111777913Y-124779281D01*
X111744956Y-124759793D01*
X111732357Y-124750808D01*
X111704485Y-124727111D01*
X111680707Y-124700997D01*
X111660783Y-124672136D01*
X111644472Y-124640199D01*
X111636275Y-124619296D01*
X111629956Y-124599987D01*
X111625438Y-124582431D01*
X111622478Y-124565095D01*
X111620830Y-124546448D01*
X111620252Y-124524961D01*
X111620248Y-124518593D01*
X111620385Y-124479576D01*
X111604590Y-124477957D01*
X111588795Y-124476339D01*
X111571736Y-124487946D01*
X111554676Y-124499553D01*
X111553971Y-124522534D01*
X111555042Y-124554744D01*
X111559967Y-124588431D01*
X111568445Y-124622588D01*
X111580179Y-124656208D01*
X111594870Y-124688285D01*
X111611657Y-124716962D01*
X111636193Y-124749774D01*
X111664306Y-124779339D01*
X111695984Y-124805649D01*
X111731212Y-124828697D01*
X111769975Y-124848476D01*
X111812260Y-124864978D01*
X111858051Y-124878197D01*
X111907335Y-124888126D01*
X111960098Y-124894756D01*
X111966165Y-124895288D01*
X111985351Y-124896440D01*
X112008266Y-124897063D01*
X112033833Y-124897181D01*
X112060974Y-124896821D01*
X112088613Y-124896010D01*
X112115672Y-124894773D01*
X112141074Y-124893135D01*
X112163742Y-124891124D01*
X112170696Y-124890353D01*
X112247758Y-124879672D01*
X112325900Y-124865752D01*
X112404359Y-124848807D01*
X112482372Y-124829049D01*
X112559179Y-124806691D01*
X112634018Y-124781945D01*
X112706126Y-124755024D01*
X112774742Y-124726141D01*
X112799519Y-124714800D01*
X112859409Y-124685174D01*
X112916890Y-124653605D01*
X112971644Y-124620323D01*
X113023355Y-124585560D01*
X113071708Y-124549548D01*
X113116385Y-124512519D01*
X113157071Y-124474703D01*
X113193449Y-124436332D01*
X113215167Y-124410539D01*
X113225329Y-124398158D01*
X113232981Y-124389607D01*
X113238308Y-124384697D01*
X113241493Y-124383240D01*
X113241730Y-124383285D01*
X113251725Y-124385780D01*
X113265746Y-124388610D01*
X113283003Y-124391661D01*
X113302705Y-124394818D01*
X113324062Y-124397969D01*
X113346283Y-124400997D01*
X113368576Y-124403789D01*
X113390152Y-124406231D01*
X113410220Y-124408208D01*
X113419762Y-124409012D01*
X113440511Y-124410203D01*
X113463492Y-124410670D01*
X113489009Y-124410395D01*
X113517366Y-124409358D01*
X113548869Y-124407543D01*
X113583823Y-124404929D01*
X113622531Y-124401500D01*
X113665300Y-124397236D01*
X113712433Y-124392119D01*
X113726981Y-124390471D01*
X113794135Y-124382370D01*
X113865732Y-124372916D01*
X113941583Y-124362144D01*
X114021497Y-124350088D01*
X114105283Y-124336784D01*
X114192750Y-124322265D01*
X114283708Y-124306566D01*
X114377966Y-124289722D01*
X114475333Y-124271769D01*
X114575619Y-124252740D01*
X114678632Y-124232670D01*
X114784183Y-124211594D01*
X114892080Y-124189547D01*
X115002133Y-124166564D01*
X115114152Y-124142679D01*
X115227945Y-124117926D01*
X115247352Y-124113657D01*
X115268975Y-124108927D01*
X115289593Y-124104482D01*
X115308624Y-124100445D01*
X115325484Y-124096935D01*
X115339589Y-124094074D01*
X115350356Y-124091982D01*
X115357202Y-124090780D01*
X115358629Y-124090585D01*
X115377403Y-124090642D01*
X115397267Y-124094479D01*
X115416974Y-124101639D01*
X115435279Y-124111666D01*
X115450935Y-124124103D01*
X115451424Y-124124581D01*
X115458801Y-124133057D01*
X115467869Y-124145486D01*
X115478370Y-124161394D01*
X115490044Y-124180306D01*
X115502631Y-124201748D01*
X115515871Y-124225247D01*
X115529504Y-124250328D01*
X115543272Y-124276518D01*
X115556913Y-124303341D01*
X115570169Y-124330324D01*
X115582780Y-124356993D01*
X115594485Y-124382874D01*
X115600472Y-124396666D01*
X115619315Y-124443939D01*
X115634317Y-124488460D01*
X115645473Y-124530204D01*
X115652779Y-124569151D01*
X115656234Y-124605277D01*
X115655833Y-124638560D01*
X115651574Y-124668977D01*
X115643922Y-124695272D01*
X115637352Y-124709166D01*
X115628051Y-124724192D01*
X115617218Y-124738659D01*
X115606050Y-124750874D01*
X115601947Y-124754590D01*
X115591394Y-124762757D01*
X115579999Y-124769968D01*
X115567387Y-124776298D01*
X115553185Y-124781822D01*
X115537021Y-124786616D01*
X115518521Y-124790756D01*
X115497313Y-124794316D01*
X115473022Y-124797373D01*
X115445277Y-124800002D01*
X115413703Y-124802278D01*
X115377928Y-124804277D01*
X115350162Y-124805554D01*
X115336605Y-124806088D01*
X115318894Y-124806715D01*
X115297714Y-124807415D01*
X115273747Y-124808168D01*
X115247677Y-124808951D01*
X115220188Y-124809745D01*
X115191962Y-124810528D01*
X115163684Y-124811281D01*
X115149381Y-124811648D01*
X115076719Y-124813565D01*
X115008484Y-124815528D01*
X114944266Y-124817558D01*
X114883652Y-124819674D01*
X114826233Y-124821897D01*
X114771597Y-124824247D01*
X114719333Y-124826745D01*
X114669031Y-124829410D01*
X114620279Y-124832262D01*
X114572667Y-124835322D01*
X114525783Y-124838611D01*
X114479217Y-124842147D01*
X114432557Y-124845952D01*
X114407943Y-124848059D01*
X114303434Y-124857875D01*
X114202971Y-124868858D01*
X114105873Y-124881149D01*
X114011460Y-124894888D01*
X113919053Y-124910215D01*
X113827972Y-124927270D01*
X113737536Y-124946195D01*
X113647066Y-124967128D01*
X113555882Y-124990210D01*
X113463303Y-125015582D01*
X113368651Y-125043384D01*
X113271245Y-125073757D01*
X113197210Y-125097897D01*
X113158363Y-125110856D01*
X113122412Y-125123038D01*
X113088965Y-125134626D01*
X113057630Y-125145802D01*
X113028014Y-125156748D01*
X112999726Y-125167647D01*
X112972374Y-125178682D01*
X112945565Y-125190035D01*
X112918908Y-125201888D01*
X112892011Y-125214425D01*
X112864481Y-125227827D01*
X112835927Y-125242277D01*
X112805956Y-125257959D01*
X112774176Y-125275053D01*
X112740196Y-125293743D01*
X112703624Y-125314212D01*
X112664066Y-125336641D01*
X112621132Y-125361213D01*
X112576724Y-125386788D01*
X112542306Y-125406624D01*
X112511607Y-125424252D01*
X112484175Y-125439919D01*
X112459562Y-125453873D01*
X112437318Y-125466363D01*
X112416993Y-125477636D01*
X112398136Y-125487941D01*
X112380299Y-125497525D01*
X112363031Y-125506636D01*
X112345882Y-125515523D01*
X112328404Y-125524433D01*
X112313048Y-125532162D01*
X112268259Y-125554051D01*
X112226576Y-125573225D01*
X112187282Y-125589930D01*
X112149658Y-125604415D01*
X112112986Y-125616927D01*
X112076550Y-125627716D01*
X112039629Y-125637028D01*
X112001508Y-125645111D01*
X111968955Y-125650979D01*
X111928308Y-125657412D01*
X111890878Y-125662468D01*
X111855278Y-125666258D01*
X111820120Y-125668896D01*
X111784020Y-125670492D01*
X111745589Y-125671158D01*
X111719171Y-125671149D01*
X111700939Y-125671012D01*
X111683766Y-125670835D01*
X111668402Y-125670630D01*
X111655598Y-125670407D01*
X111646102Y-125670178D01*
X111640667Y-125669955D01*
X111640552Y-125669947D01*
X111578121Y-125663765D01*
X111516537Y-125654409D01*
X111456390Y-125642029D01*
X111398264Y-125626776D01*
X111342747Y-125608800D01*
X111290426Y-125588253D01*
X111250886Y-125569875D01*
X111192028Y-125537716D01*
X111134684Y-125501002D01*
X111078906Y-125459788D01*
X111024747Y-125414130D01*
X110972259Y-125364086D01*
X110921494Y-125309710D01*
X110872504Y-125251060D01*
X110825342Y-125188192D01*
X110780060Y-125121161D01*
X110736710Y-125050024D01*
X110695344Y-124974837D01*
X110692377Y-124969140D01*
X110667001Y-124917703D01*
X110643334Y-124864393D01*
X110621132Y-124808569D01*
X110600147Y-124749594D01*
X110580134Y-124686827D01*
X110568818Y-124648234D01*
X110563630Y-124630002D01*
X110395124Y-124562030D01*
X110368054Y-124551076D01*
X110342329Y-124540600D01*
X110318297Y-124530746D01*
X110296304Y-124521662D01*
X110276699Y-124513491D01*
X110259827Y-124506380D01*
X110246038Y-124500474D01*
X110235676Y-124495918D01*
X110229091Y-124492859D01*
X110226628Y-124491441D01*
X110226619Y-124491409D01*
X110228385Y-124489437D01*
X110233507Y-124484490D01*
X110241724Y-124476808D01*
X110252775Y-124466629D01*
X110266396Y-124454189D01*
X110282327Y-124439728D01*
X110300305Y-124423482D01*
X110320069Y-124405690D01*
X110341357Y-124386590D01*
X110363906Y-124366419D01*
X110381438Y-124350777D01*
X110536257Y-124212794D01*
X110546116Y-124185558D01*
X110565546Y-124137507D01*
X110588344Y-124091631D01*
X110614790Y-124047513D01*
X110645162Y-124004736D01*
X110679739Y-123962883D01*
X110718801Y-123921536D01*
X110730039Y-123910515D01*
X110776198Y-123869250D01*
X110825975Y-123831069D01*
X110879189Y-123796064D01*
X110935659Y-123764324D01*
X110995203Y-123735941D01*
X111057639Y-123711004D01*
X111122785Y-123689605D01*
X111190460Y-123671835D01*
X111222057Y-123664972D01*
X111252501Y-123659050D01*
X111279739Y-123654407D01*
X111305186Y-123650888D01*
X111330256Y-123648335D01*
X111356364Y-123646592D01*
X111384925Y-123645501D01*
X111401067Y-123645143D01*
X111433136Y-123644853D01*
X111461564Y-123645271D01*
G37*
%TD*%
D11*
%TO.C,U6*%
X112714000Y-112095000D03*
X112714000Y-113365000D03*
X112714000Y-114635000D03*
X112714000Y-115905000D03*
X117664000Y-115905000D03*
X117664000Y-114635000D03*
X117664000Y-113365000D03*
X117664000Y-112095000D03*
%TD*%
D12*
%TO.C,JP2*%
X175006000Y-111333000D03*
D13*
X175006000Y-108793000D03*
%TD*%
D14*
%TO.C,C12*%
X152208000Y-80244000D03*
X151248000Y-80244000D03*
%TD*%
D15*
%TO.C,R4*%
X148601200Y-82327000D03*
X149621200Y-82327000D03*
%TD*%
D13*
%TO.C,J10*%
X114305000Y-100030000D03*
X116845000Y-100030000D03*
X119385000Y-100030000D03*
X121925000Y-100030000D03*
X124465000Y-100030000D03*
X127005000Y-100030000D03*
X129545000Y-100030000D03*
X132085000Y-100030000D03*
X134625000Y-100030000D03*
X137165000Y-100030000D03*
X139705000Y-100030000D03*
X142245000Y-100030000D03*
X144785000Y-100030000D03*
X147325000Y-100030000D03*
X149865000Y-100030000D03*
X152405000Y-100030000D03*
X154945000Y-100030000D03*
X157485000Y-100030000D03*
X160025000Y-100030000D03*
%TD*%
D16*
%TO.C,R29*%
X157609000Y-112603000D03*
X156589000Y-112603000D03*
%TD*%
D17*
%TO.C,R25*%
X110058200Y-116360200D03*
X110058200Y-117380200D03*
%TD*%
D13*
%TO.C,J8*%
X126995000Y-122890000D03*
X129535000Y-122890000D03*
%TD*%
D15*
%TO.C,R31*%
X174851600Y-96423200D03*
X175871600Y-96423200D03*
%TD*%
D17*
%TO.C,R10*%
X163043289Y-83571963D03*
X163043289Y-84591963D03*
%TD*%
D18*
%TO.C,PORT3*%
X106349600Y-95585000D03*
X107924600Y-95585000D03*
%TD*%
D17*
%TO.C,R27*%
X161315400Y-114328200D03*
X161315400Y-115348200D03*
%TD*%
D19*
%TO.C,REF\u002A\u002A*%
X177800000Y-125430000D03*
%TD*%
D16*
%TO.C,R45*%
X150497000Y-72598000D03*
X149477000Y-72598000D03*
%TD*%
D20*
%TO.C,D2*%
X174331400Y-97744000D03*
X175731400Y-97744000D03*
%TD*%
D15*
%TO.C,R15*%
X125829600Y-72598000D03*
X126849600Y-72598000D03*
%TD*%
D21*
%TO.C,C54*%
X182372000Y-92890000D03*
X182372000Y-91930000D03*
%TD*%
D22*
%TO.C,J17*%
X176372000Y-117878500D03*
D23*
X182372000Y-117878500D03*
D24*
X179372000Y-113178500D03*
%TD*%
D15*
%TO.C,R8*%
X115034600Y-72598000D03*
X116054600Y-72598000D03*
%TD*%
D13*
%TO.C,J6*%
X114305000Y-97490000D03*
X116845000Y-97490000D03*
X119385000Y-97490000D03*
X121925000Y-97490000D03*
X124465000Y-97490000D03*
X127005000Y-97490000D03*
X129545000Y-97490000D03*
X132085000Y-97490000D03*
X134625000Y-97490000D03*
X137165000Y-97490000D03*
X139705000Y-97490000D03*
X142245000Y-97490000D03*
X144785000Y-97490000D03*
X147325000Y-97490000D03*
X149865000Y-97490000D03*
X152405000Y-97490000D03*
X154945000Y-97490000D03*
X157485000Y-97490000D03*
X160025000Y-97490000D03*
%TD*%
D16*
%TO.C,R49*%
X160530000Y-72598000D03*
X159510000Y-72598000D03*
%TD*%
D14*
%TO.C,C14*%
X152256200Y-84358800D03*
X151296200Y-84358800D03*
%TD*%
%TO.C,C49*%
X115923000Y-117302000D03*
X114963000Y-117302000D03*
%TD*%
D12*
%TO.C,JP3*%
X171246800Y-101330400D03*
D13*
X171246800Y-98790400D03*
%TD*%
D25*
%TO.C,L2*%
X153983000Y-115143000D03*
X151833000Y-115143000D03*
%TD*%
D16*
%TO.C,R48*%
X158117000Y-72598000D03*
X157097000Y-72598000D03*
%TD*%
D26*
%TO.C,D1*%
X183754000Y-92962000D03*
X183754000Y-92112000D03*
X183754000Y-91262000D03*
X183754000Y-93812000D03*
%TD*%
D15*
%TO.C,R35*%
X128369600Y-72598000D03*
X129389600Y-72598000D03*
%TD*%
D27*
%TO.C,R40*%
X137535976Y-93329424D03*
X138257224Y-92608176D03*
%TD*%
D28*
%TO.C,C38*%
X161041900Y-83570800D03*
X162001900Y-83570800D03*
%TD*%
D29*
%TO.C,J13*%
X111384600Y-77424000D03*
D30*
X111384600Y-79924000D03*
X111384600Y-81924000D03*
X111384600Y-84424000D03*
X108764600Y-77424000D03*
X108764600Y-79924000D03*
X108764600Y-81924000D03*
X108764600Y-84424000D03*
D31*
X111734600Y-74354000D03*
X106054600Y-74354000D03*
X111734600Y-87494000D03*
X106054600Y-87494000D03*
%TD*%
D32*
%TO.C,C53*%
X131101800Y-114381000D03*
X132651800Y-114381000D03*
%TD*%
D12*
%TO.C,J16*%
X163830000Y-126700000D03*
D13*
X166370000Y-126700000D03*
X168910000Y-126700000D03*
X171450000Y-126700000D03*
%TD*%
D18*
%TO.C,PORT2*%
X106349600Y-93934000D03*
X107924600Y-93934000D03*
%TD*%
D15*
%TO.C,R38*%
X135862600Y-72598000D03*
X136882600Y-72598000D03*
%TD*%
D33*
%TO.C,J3*%
X179742000Y-102920000D03*
X179742000Y-97140000D03*
D34*
X178672000Y-103230000D03*
X178672000Y-102430000D03*
D35*
X178672000Y-101280000D03*
X178672000Y-100280000D03*
X178672000Y-99780000D03*
X178672000Y-98780000D03*
D34*
X178672000Y-97630000D03*
X178672000Y-96830000D03*
X178672000Y-96830000D03*
X178672000Y-97630000D03*
D35*
X178672000Y-98280000D03*
X178672000Y-99280000D03*
X178672000Y-100780000D03*
X178672000Y-101780000D03*
D34*
X178672000Y-102430000D03*
X178672000Y-103230000D03*
D36*
X179242000Y-104350000D03*
D37*
X183422000Y-104350000D03*
D36*
X179242000Y-95710000D03*
D37*
X183422000Y-95710000D03*
%TD*%
D38*
%TO.C,C55*%
X160020000Y-115664000D03*
X160020000Y-114114000D03*
%TD*%
D13*
%TO.C,J15*%
X114305000Y-107650000D03*
X116845000Y-107650000D03*
X119385000Y-107650000D03*
X121925000Y-107650000D03*
X124465000Y-107650000D03*
X127005000Y-107650000D03*
X129545000Y-107650000D03*
X132085000Y-107650000D03*
X134625000Y-107650000D03*
X137165000Y-107650000D03*
X139705000Y-107650000D03*
X142245000Y-107650000D03*
X144785000Y-107650000D03*
X147325000Y-107650000D03*
X149865000Y-107650000D03*
X152405000Y-107650000D03*
X154945000Y-107650000D03*
X157485000Y-107650000D03*
X160025000Y-107650000D03*
%TD*%
%TO.C,J11*%
X114305000Y-105110000D03*
X116845000Y-105110000D03*
X119385000Y-105110000D03*
X121925000Y-105110000D03*
X124465000Y-105110000D03*
X127005000Y-105110000D03*
X129545000Y-105110000D03*
X132085000Y-105110000D03*
X134625000Y-105110000D03*
X137165000Y-105110000D03*
X139705000Y-105110000D03*
X142245000Y-105110000D03*
X144785000Y-105110000D03*
X147325000Y-105110000D03*
X149865000Y-105110000D03*
X152405000Y-105110000D03*
X154945000Y-105110000D03*
X157485000Y-105110000D03*
X160025000Y-105110000D03*
%TD*%
D39*
%TO.C,J19*%
X170180000Y-87462000D03*
D30*
X172720000Y-86192000D03*
X170180000Y-84922000D03*
X172720000Y-83652000D03*
X170180000Y-82382000D03*
X170180000Y-79842000D03*
X172720000Y-78572000D03*
X170180000Y-77302000D03*
X172720000Y-76032000D03*
X183150000Y-88367000D03*
X183150000Y-85827000D03*
X183150000Y-77657000D03*
X183150000Y-75117000D03*
D40*
X176020000Y-73997000D03*
X176020000Y-89487000D03*
%TD*%
D18*
%TO.C,PORT5*%
X105262500Y-118445000D03*
X106837500Y-118445000D03*
%TD*%
%TO.C,ACTIVE1*%
X106349600Y-90505000D03*
X107924600Y-90505000D03*
%TD*%
D15*
%TO.C,R39*%
X138275600Y-72598000D03*
X139295600Y-72598000D03*
%TD*%
D41*
%TO.C,C25*%
X142609400Y-91115200D03*
X142609400Y-92075200D03*
%TD*%
%TO.C,C40*%
X164188900Y-83725800D03*
X164188900Y-84685800D03*
%TD*%
D42*
%TO.C,C39*%
X165458900Y-83938800D03*
X165458900Y-85488800D03*
%TD*%
D43*
%TO.C,Y1*%
X151164200Y-81610200D03*
X151164200Y-83010200D03*
X152264200Y-83010200D03*
X152264200Y-81610200D03*
%TD*%
D14*
%TO.C,C35*%
X166192900Y-81157800D03*
X165232900Y-81157800D03*
%TD*%
D44*
%TO.C,R19*%
X121031000Y-110402500D03*
X121031000Y-116327500D03*
%TD*%
D32*
%TO.C,C37*%
X161635900Y-82300800D03*
X163185900Y-82300800D03*
%TD*%
D25*
%TO.C,L1*%
X151628200Y-91365102D03*
X149478200Y-91365102D03*
%TD*%
D15*
%TO.C,R28*%
X152779000Y-111841000D03*
X153799000Y-111841000D03*
%TD*%
D45*
%TO.C,U10*%
X155961500Y-113939000D03*
X155961500Y-114889000D03*
X155961500Y-115839000D03*
X158236500Y-115839000D03*
X158236500Y-113939000D03*
%TD*%
D16*
%TO.C,R43*%
X145290000Y-72598000D03*
X144270000Y-72598000D03*
%TD*%
D46*
%TO.C,Y3*%
X126453000Y-86779000D03*
X126453000Y-84579000D03*
X124753000Y-84579000D03*
X124753000Y-86779000D03*
%TD*%
D47*
%TO.C,SW2*%
X182767400Y-71511600D03*
X182767400Y-69061600D03*
D48*
X182767400Y-70286600D03*
D49*
X184717400Y-72136600D03*
X184717400Y-68436600D03*
%TD*%
D15*
%TO.C,R26*%
X180338000Y-106380000D03*
X181358000Y-106380000D03*
%TD*%
D19*
%TO.C,REF\u002A\u002A*%
X106680000Y-69550000D03*
%TD*%
D47*
%TO.C,SW1*%
X182742000Y-111415000D03*
X182742000Y-108965000D03*
D48*
X182742000Y-110190000D03*
D49*
X184692000Y-112040000D03*
X184692000Y-108340000D03*
%TD*%
D38*
%TO.C,C57*%
X149987000Y-115029000D03*
X149987000Y-113479000D03*
%TD*%
D13*
%TO.C,J7*%
X114305000Y-102570000D03*
X116845000Y-102570000D03*
X119385000Y-102570000D03*
X121925000Y-102570000D03*
X124465000Y-102570000D03*
X127005000Y-102570000D03*
X129545000Y-102570000D03*
X132085000Y-102570000D03*
X134625000Y-102570000D03*
X137165000Y-102570000D03*
X139705000Y-102570000D03*
X142245000Y-102570000D03*
X144785000Y-102570000D03*
X147325000Y-102570000D03*
X149865000Y-102570000D03*
X152405000Y-102570000D03*
X154945000Y-102570000D03*
X157485000Y-102570000D03*
X160025000Y-102570000D03*
%TD*%
D42*
%TO.C,C50*%
X124739400Y-115130000D03*
X124739400Y-116680000D03*
%TD*%
D13*
%TO.C,J12*%
X114305000Y-94950000D03*
X116845000Y-94950000D03*
X119385000Y-94950000D03*
X121925000Y-94950000D03*
X124465000Y-94950000D03*
X127005000Y-94950000D03*
X129545000Y-94950000D03*
X132085000Y-94950000D03*
X134625000Y-94950000D03*
X137165000Y-94950000D03*
X139705000Y-94950000D03*
X142245000Y-94950000D03*
X144785000Y-94950000D03*
X147325000Y-94950000D03*
X149865000Y-94950000D03*
X152405000Y-94950000D03*
X154945000Y-94950000D03*
X157485000Y-94950000D03*
X160025000Y-94950000D03*
%TD*%
D16*
%TO.C,R20*%
X125351000Y-113619000D03*
X124331000Y-113619000D03*
%TD*%
D45*
%TO.C,U8*%
X126497500Y-114955000D03*
X126497500Y-115905000D03*
X126497500Y-116855000D03*
X128772500Y-116855000D03*
X128772500Y-114955000D03*
%TD*%
D13*
%TO.C,J20*%
X105415000Y-100030000D03*
X107955000Y-100030000D03*
X105415000Y-102570000D03*
X107955000Y-102570000D03*
X105415000Y-105110000D03*
X107955000Y-105110000D03*
X105415000Y-107650000D03*
X107955000Y-107650000D03*
%TD*%
D16*
%TO.C,R47*%
X155577000Y-72598000D03*
X154557000Y-72598000D03*
%TD*%
D18*
%TO.C,D9*%
X105262500Y-120350000D03*
X106837500Y-120350000D03*
%TD*%
D41*
%TO.C,C28*%
X144188000Y-91034800D03*
X144188000Y-91994800D03*
%TD*%
D50*
%TO.C,J14*%
X109132600Y-112039964D03*
X109132600Y-113039964D03*
X109132600Y-114039964D03*
X109132600Y-115039964D03*
D51*
X105257600Y-110739964D03*
X105257600Y-116339964D03*
%TD*%
D13*
%TO.C,J21*%
X124465000Y-126700000D03*
X121925000Y-126700000D03*
X119385000Y-126700000D03*
X116845000Y-126700000D03*
X114305000Y-126700000D03*
X111765000Y-126700000D03*
%TD*%
D45*
%TO.C,U3*%
X149345900Y-87295002D03*
X149345900Y-88245002D03*
X149345900Y-89195002D03*
X151620900Y-89195002D03*
X151620900Y-87295002D03*
%TD*%
D18*
%TO.C,PORT4*%
X106349600Y-97363000D03*
X107924600Y-97363000D03*
%TD*%
D52*
%TO.C,R41*%
X140360400Y-93478800D03*
X140360400Y-92458800D03*
%TD*%
D18*
%TO.C,PORT1*%
X106349600Y-92283000D03*
X107924600Y-92283000D03*
%TD*%
D20*
%TO.C,D4*%
X174331400Y-95077000D03*
X175731400Y-95077000D03*
%TD*%
D21*
%TO.C,C21*%
X153144000Y-89256302D03*
X153144000Y-88296302D03*
%TD*%
D42*
%TO.C,C52*%
X132613400Y-111307000D03*
X132613400Y-112857000D03*
%TD*%
D19*
%TO.C,REF\u002A\u002A*%
X177800000Y-69550000D03*
%TD*%
D16*
%TO.C,R44*%
X147957000Y-72598000D03*
X146937000Y-72598000D03*
%TD*%
D12*
%TO.C,J1*%
X165100000Y-98760000D03*
D13*
X167640000Y-98760000D03*
X165100000Y-101300000D03*
X167640000Y-101300000D03*
%TD*%
D15*
%TO.C,R36*%
X130909600Y-72598000D03*
X131929600Y-72598000D03*
%TD*%
D16*
%TO.C,R46*%
X153037000Y-72598000D03*
X152017000Y-72598000D03*
%TD*%
D53*
%TO.C,C36*%
X166487900Y-82427800D03*
X164937900Y-82427800D03*
%TD*%
D20*
%TO.C,D3*%
X174356800Y-100030000D03*
X175756800Y-100030000D03*
%TD*%
D16*
%TO.C,R21*%
X127832000Y-118118000D03*
X126812000Y-118118000D03*
%TD*%
D54*
%TO.C,U2*%
X145042000Y-79978000D03*
X144692000Y-79978000D03*
X144342000Y-79978000D03*
X143992000Y-79978000D03*
X143642000Y-79978000D03*
X143292000Y-79978000D03*
X142942000Y-79978000D03*
X142592000Y-79978000D03*
X142242000Y-79978000D03*
X141892000Y-79978000D03*
X141542000Y-79978000D03*
X141192000Y-79978000D03*
X140842000Y-79978000D03*
X140492000Y-79978000D03*
X140142000Y-79978000D03*
X139792000Y-79978000D03*
X139442000Y-79978000D03*
X139092000Y-79978000D03*
X138742000Y-79978000D03*
X138392000Y-79978000D03*
X138042000Y-79978000D03*
X137692000Y-79978000D03*
X137342000Y-79978000D03*
X136992000Y-79978000D03*
X136642000Y-79978000D03*
X136292000Y-79978000D03*
D55*
X135792000Y-80478000D03*
X135792000Y-80828000D03*
X135792000Y-81178000D03*
X135792000Y-81528000D03*
X135792000Y-81878000D03*
X135792000Y-82228000D03*
X135792000Y-82578000D03*
X135792000Y-82928000D03*
X135792000Y-83278000D03*
X135792000Y-83628000D03*
X135792000Y-83978000D03*
X135792000Y-84328000D03*
X135792000Y-84678000D03*
X135792000Y-85028000D03*
X135792000Y-85378000D03*
X135792000Y-85728000D03*
X135792000Y-86078000D03*
X135792000Y-86428000D03*
X135792000Y-86778000D03*
X135792000Y-87128000D03*
X135792000Y-87478000D03*
X135792000Y-87828000D03*
X135792000Y-88178000D03*
X135792000Y-88528000D03*
X135792000Y-88878000D03*
X135792000Y-89228000D03*
D54*
X136292000Y-89728000D03*
X136642000Y-89728000D03*
X136992000Y-89728000D03*
X137342000Y-89728000D03*
X137692000Y-89728000D03*
X138042000Y-89728000D03*
X138392000Y-89728000D03*
X138742000Y-89728000D03*
X139092000Y-89728000D03*
X139442000Y-89728000D03*
X139792000Y-89728000D03*
X140142000Y-89728000D03*
X140492000Y-89728000D03*
X140842000Y-89728000D03*
X141192000Y-89728000D03*
X141542000Y-89728000D03*
X141892000Y-89728000D03*
X142242000Y-89728000D03*
X142592000Y-89728000D03*
X142942000Y-89728000D03*
X143292000Y-89728000D03*
X143642000Y-89728000D03*
X143992000Y-89728000D03*
X144342000Y-89728000D03*
X144692000Y-89728000D03*
X145042000Y-89728000D03*
D55*
X145542000Y-89228000D03*
X145542000Y-88878000D03*
X145542000Y-88528000D03*
X145542000Y-88178000D03*
X145542000Y-87828000D03*
X145542000Y-87478000D03*
X145542000Y-87128000D03*
X145542000Y-86778000D03*
X145542000Y-86428000D03*
X145542000Y-86078000D03*
X145542000Y-85728000D03*
X145542000Y-85378000D03*
X145542000Y-85028000D03*
X145542000Y-84678000D03*
X145542000Y-84328000D03*
X145542000Y-83978000D03*
X145542000Y-83628000D03*
X145542000Y-83278000D03*
X145542000Y-82928000D03*
X145542000Y-82578000D03*
X145542000Y-82228000D03*
X145542000Y-81878000D03*
X145542000Y-81528000D03*
X145542000Y-81178000D03*
X145542000Y-80828000D03*
X145542000Y-80478000D03*
D56*
X143367000Y-82153000D03*
X140667000Y-82153000D03*
X137967000Y-82153000D03*
X143367000Y-84853000D03*
X140667000Y-84853000D03*
X137967000Y-84853000D03*
X143367000Y-87553000D03*
X140667000Y-87553000D03*
X137967000Y-87553000D03*
%TD*%
D15*
%TO.C,R22*%
X130300000Y-117810000D03*
X131320000Y-117810000D03*
%TD*%
D12*
%TO.C,J18*%
X125730000Y-79075000D03*
D13*
X125730000Y-81615000D03*
X123190000Y-79075000D03*
X123190000Y-81615000D03*
X120650000Y-79075000D03*
X120650000Y-81615000D03*
X118110000Y-79075000D03*
X118110000Y-81615000D03*
X115570000Y-79075000D03*
X115570000Y-81615000D03*
%TD*%
D42*
%TO.C,C51*%
X123952000Y-110812000D03*
X123952000Y-112362000D03*
%TD*%
D15*
%TO.C,R9*%
X117574600Y-72598000D03*
X118594600Y-72598000D03*
%TD*%
%TO.C,R23*%
X130300000Y-112730000D03*
X131320000Y-112730000D03*
%TD*%
D19*
%TO.C,REF\u002A\u002A*%
X106680000Y-125430000D03*
%TD*%
D57*
%TO.C,U7*%
X122650000Y-87838000D03*
X122150000Y-87838000D03*
X121650000Y-87838000D03*
X121150000Y-87838000D03*
X120650000Y-87838000D03*
X120150000Y-87838000D03*
D58*
X119437500Y-88550500D03*
X119437500Y-89050500D03*
X119437500Y-89550500D03*
X119437500Y-90050500D03*
X119437500Y-90550500D03*
X119437500Y-91050500D03*
D57*
X120150000Y-91763000D03*
X120650000Y-91763000D03*
X121150000Y-91763000D03*
X121650000Y-91763000D03*
X122150000Y-91763000D03*
X122650000Y-91763000D03*
D58*
X123362500Y-91050500D03*
X123362500Y-90550500D03*
X123362500Y-90050500D03*
X123362500Y-89550500D03*
X123362500Y-89050500D03*
X123362500Y-88550500D03*
D59*
X121400000Y-89800500D03*
%TD*%
D15*
%TO.C,R37*%
X133449600Y-72598000D03*
X134469600Y-72598000D03*
%TD*%
D13*
%TO.C,J5*%
X111760000Y-120350000D03*
X114300000Y-120350000D03*
X116840000Y-120350000D03*
X119380000Y-120350000D03*
X121920000Y-120350000D03*
X124460000Y-120350000D03*
X127000000Y-120350000D03*
X129540000Y-120350000D03*
X132080000Y-120350000D03*
X134620000Y-120350000D03*
X137160000Y-120350000D03*
X139700000Y-120350000D03*
X142240000Y-120350000D03*
X144780000Y-120350000D03*
X147320000Y-120350000D03*
X149860000Y-120350000D03*
X152400000Y-120350000D03*
X154940000Y-120350000D03*
X157480000Y-120350000D03*
X160020000Y-120350000D03*
%TD*%
D16*
%TO.C,R42*%
X142750000Y-72598000D03*
X141730000Y-72598000D03*
%TD*%
D60*
%TO.C,D8*%
X184307500Y-106380000D03*
X182732500Y-106380000D03*
%TD*%
D28*
%TO.C,C56*%
X152809000Y-112984000D03*
X153769000Y-112984000D03*
%TD*%
D15*
%TO.C,R14*%
X120114600Y-72598000D03*
X121134600Y-72598000D03*
%TD*%
D16*
%TO.C,R93*%
X112905000Y-117271800D03*
X111885000Y-117271800D03*
%TD*%
D45*
%TO.C,U9*%
X126497500Y-110510000D03*
X126497500Y-111460000D03*
X126497500Y-112410000D03*
X128772500Y-112410000D03*
X128772500Y-110510000D03*
%TD*%
D15*
%TO.C,R30*%
X174877000Y-101274600D03*
X175897000Y-101274600D03*
%TD*%
%TO.C,R3*%
X148601200Y-81327000D03*
X149621200Y-81327000D03*
%TD*%
D61*
%TO.C,U1*%
X133067200Y-78313600D03*
X131797200Y-78313600D03*
X130527200Y-78313600D03*
X129257200Y-78313600D03*
X129257200Y-83713600D03*
X130527200Y-83713600D03*
X131797200Y-83713600D03*
X133067200Y-83713600D03*
D62*
X131162200Y-81013600D03*
%TD*%
D38*
%TO.C,C33*%
X147606800Y-90554302D03*
X147606800Y-89004302D03*
%TD*%
D12*
%TO.C,J4*%
X115570000Y-74930000D03*
D13*
X118110000Y-74930000D03*
X120650000Y-74930000D03*
X123190000Y-74930000D03*
X125730000Y-74930000D03*
X128270000Y-74930000D03*
X130810000Y-74930000D03*
X133350000Y-74930000D03*
X135890000Y-74930000D03*
X138430000Y-74930000D03*
%TD*%
D12*
%TO.C,J2*%
X142240000Y-74930000D03*
D13*
X144780000Y-74930000D03*
X147320000Y-74930000D03*
X149860000Y-74930000D03*
X152400000Y-74930000D03*
X154940000Y-74930000D03*
X157480000Y-74930000D03*
X160020000Y-74930000D03*
%TD*%
%TO.C,J9*%
X147320000Y-122890000D03*
X149860000Y-122890000D03*
X152400000Y-122890000D03*
X154940000Y-122890000D03*
X157480000Y-122890000D03*
X160020000Y-122890000D03*
%TD*%
M02*
