%TF.GenerationSoftware,KiCad,Pcbnew,10.0.3*%
%TF.CreationDate,2026-06-09T16:28:04-07:00*%
%TF.ProjectId,p4hil,70346869-6c2e-46b6-9963-61645f706362,rev?*%
%TF.SameCoordinates,Original*%
%TF.FileFunction,Legend,Bot*%
%TF.FilePolarity,Positive*%
%FSLAX46Y46*%
G04 Gerber Fmt 4.6, Leading zero omitted, Abs format (unit mm)*
G04 Created by KiCad (PCBNEW 10.0.3) date 2026-06-09 16:28:04*
%MOMM*%
%LPD*%
G01*
G04 APERTURE LIST*
G04 Aperture macros list*
%AMRoundRect*
0 Rectangle with rounded corners*
0 $1 Rounding radius*
0 $2 $3 $4 $5 $6 $7 $8 $9 X,Y pos of 4 corners*
0 Add a 4 corners polygon primitive as box body*
4,1,4,$2,$3,$4,$5,$6,$7,$8,$9,$2,$3,0*
0 Add four circle primitives for the rounded corners*
1,1,$1+$1,$2,$3*
1,1,$1+$1,$4,$5*
1,1,$1+$1,$6,$7*
1,1,$1+$1,$8,$9*
0 Add four rect primitives between the rounded corners*
20,1,$1+$1,$2,$3,$4,$5,0*
20,1,$1+$1,$4,$5,$6,$7,0*
20,1,$1+$1,$6,$7,$8,$9,0*
20,1,$1+$1,$8,$9,$2,$3,0*%
%AMFreePoly0*
4,1,14,0.385355,0.085355,0.400000,0.050000,0.400000,0.020711,0.385355,-0.014644,0.314644,-0.085355,0.279289,-0.100000,-0.350000,-0.100000,-0.385355,-0.085355,-0.400000,-0.050000,-0.400000,0.050000,-0.385355,0.085355,-0.350000,0.100000,0.350000,0.100000,0.385355,0.085355,0.385355,0.085355,$1*%
%AMFreePoly1*
4,1,14,0.314644,0.085355,0.385355,0.014644,0.400000,-0.020711,0.400000,-0.050000,0.385355,-0.085355,0.350000,-0.100000,-0.350000,-0.100000,-0.385355,-0.085355,-0.400000,-0.050000,-0.400000,0.050000,-0.385355,0.085355,-0.350000,0.100000,0.279289,0.100000,0.314644,0.085355,0.314644,0.085355,$1*%
%AMFreePoly2*
4,1,14,0.085355,0.385355,0.100000,0.350000,0.100000,-0.350000,0.085355,-0.385355,0.050000,-0.400000,0.020711,-0.400000,-0.014644,-0.385355,-0.085355,-0.314644,-0.100000,-0.279289,-0.100000,0.350000,-0.085355,0.385355,-0.050000,0.400000,0.050000,0.400000,0.085355,0.385355,0.085355,0.385355,$1*%
%AMFreePoly3*
4,1,14,0.085355,0.385355,0.100000,0.350000,0.100000,-0.279289,0.085355,-0.314644,0.014644,-0.385355,-0.020711,-0.400000,-0.050000,-0.400000,-0.085355,-0.385355,-0.100000,-0.350000,-0.100000,0.350000,-0.085355,0.385355,-0.050000,0.400000,0.050000,0.400000,0.085355,0.385355,0.085355,0.385355,$1*%
%AMFreePoly4*
4,1,14,0.385355,0.085355,0.400000,0.050000,0.400000,-0.050000,0.385355,-0.085355,0.350000,-0.100000,-0.350000,-0.100000,-0.385355,-0.085355,-0.400000,-0.050000,-0.400000,-0.020711,-0.385355,0.014644,-0.314644,0.085355,-0.279289,0.100000,0.350000,0.100000,0.385355,0.085355,0.385355,0.085355,$1*%
%AMFreePoly5*
4,1,14,0.385355,0.085355,0.400000,0.050000,0.400000,-0.050000,0.385355,-0.085355,0.350000,-0.100000,-0.279289,-0.100000,-0.314644,-0.085355,-0.385355,-0.014644,-0.400000,0.020711,-0.400000,0.050000,-0.385355,0.085355,-0.350000,0.100000,0.350000,0.100000,0.385355,0.085355,0.385355,0.085355,$1*%
%AMFreePoly6*
4,1,14,0.014644,0.385355,0.085355,0.314644,0.100000,0.279289,0.100000,-0.350000,0.085355,-0.385355,0.050000,-0.400000,-0.050000,-0.400000,-0.085355,-0.385355,-0.100000,-0.350000,-0.100000,0.350000,-0.085355,0.385355,-0.050000,0.400000,-0.020711,0.400000,0.014644,0.385355,0.014644,0.385355,$1*%
%AMFreePoly7*
4,1,14,0.085355,0.385355,0.100000,0.350000,0.100000,-0.350000,0.085355,-0.385355,0.050000,-0.400000,-0.050000,-0.400000,-0.085355,-0.385355,-0.100000,-0.350000,-0.100000,0.279289,-0.085355,0.314644,-0.014644,0.385355,0.020711,0.400000,0.050000,0.400000,0.085355,0.385355,0.085355,0.385355,$1*%
G04 Aperture macros list end*
%ADD10C,0.120000*%
%ADD11C,1.700000*%
%ADD12C,4.100000*%
%ADD13RoundRect,0.250000X-0.500000X0.500000X-0.500000X-0.500000X0.500000X-0.500000X0.500000X0.500000X0*%
%ADD14C,1.500000*%
%ADD15C,3.000000*%
%ADD16C,0.600000*%
%ADD17O,2.000000X0.900000*%
%ADD18O,1.700000X0.900000*%
%ADD19C,0.900000*%
%ADD20C,3.250000*%
%ADD21RoundRect,0.250500X0.499500X-0.499500X0.499500X0.499500X-0.499500X0.499500X-0.499500X-0.499500X0*%
%ADD22C,2.500000*%
%ADD23R,1.700000X1.700000*%
%ADD24RoundRect,0.135000X-0.185000X0.135000X-0.185000X-0.135000X0.185000X-0.135000X0.185000X0.135000X0*%
%ADD25RoundRect,0.135000X0.185000X-0.135000X0.185000X0.135000X-0.185000X0.135000X-0.185000X-0.135000X0*%
%ADD26RoundRect,0.140000X0.140000X0.170000X-0.140000X0.170000X-0.140000X-0.170000X0.140000X-0.170000X0*%
%ADD27RoundRect,0.135000X-0.135000X-0.185000X0.135000X-0.185000X0.135000X0.185000X-0.135000X0.185000X0*%
%ADD28RoundRect,0.062500X-0.325000X-0.062500X0.325000X-0.062500X0.325000X0.062500X-0.325000X0.062500X0*%
%ADD29RoundRect,0.062500X-0.062500X-0.325000X0.062500X-0.325000X0.062500X0.325000X-0.062500X0.325000X0*%
%ADD30R,2.450000X2.450000*%
%ADD31RoundRect,0.225000X0.250000X-0.225000X0.250000X0.225000X-0.250000X0.225000X-0.250000X-0.225000X0*%
%ADD32RoundRect,0.140000X-0.170000X0.140000X-0.170000X-0.140000X0.170000X-0.140000X0.170000X0.140000X0*%
%ADD33RoundRect,0.225000X0.225000X0.250000X-0.225000X0.250000X-0.225000X-0.250000X0.225000X-0.250000X0*%
%ADD34RoundRect,0.140000X0.170000X-0.140000X0.170000X0.140000X-0.170000X0.140000X-0.170000X-0.140000X0*%
%ADD35RoundRect,0.140000X-0.140000X-0.170000X0.140000X-0.170000X0.140000X0.170000X-0.140000X0.170000X0*%
%ADD36RoundRect,0.225000X-0.250000X0.225000X-0.250000X-0.225000X0.250000X-0.225000X0.250000X0.225000X0*%
%ADD37RoundRect,0.135000X0.135000X0.185000X-0.135000X0.185000X-0.135000X-0.185000X0.135000X-0.185000X0*%
%ADD38FreePoly0,90.000000*%
%ADD39RoundRect,0.050000X0.050000X-0.350000X0.050000X0.350000X-0.050000X0.350000X-0.050000X-0.350000X0*%
%ADD40FreePoly1,90.000000*%
%ADD41FreePoly2,90.000000*%
%ADD42RoundRect,0.050000X0.350000X-0.050000X0.350000X0.050000X-0.350000X0.050000X-0.350000X-0.050000X0*%
%ADD43FreePoly3,90.000000*%
%ADD44FreePoly4,90.000000*%
%ADD45FreePoly5,90.000000*%
%ADD46FreePoly6,90.000000*%
%ADD47FreePoly7,90.000000*%
%ADD48R,2.650000X2.650000*%
%ADD49RoundRect,0.250000X-0.450000X-0.350000X0.450000X-0.350000X0.450000X0.350000X-0.450000X0.350000X0*%
G04 APERTURE END LIST*
%TO.C,R105*%
D10*
X139864750Y-117402359D02*
X139864750Y-117709641D01*
X140624750Y-117402359D02*
X140624750Y-117709641D01*
%TO.C,R84*%
X139294600Y-115753841D02*
X139294600Y-115446559D01*
X140054600Y-115753841D02*
X140054600Y-115446559D01*
%TO.C,R62*%
X138812000Y-117402359D02*
X138812000Y-117709641D01*
X139572000Y-117402359D02*
X139572000Y-117709641D01*
%TO.C,R58*%
X128620250Y-117402359D02*
X128620250Y-117709641D01*
X129380250Y-117402359D02*
X129380250Y-117709641D01*
%TO.C,C13*%
X133198636Y-81881200D02*
X132982964Y-81881200D01*
X133198636Y-82601200D02*
X132982964Y-82601200D01*
%TO.C,R52*%
X113285000Y-117402359D02*
X113285000Y-117709641D01*
X114045000Y-117402359D02*
X114045000Y-117709641D01*
%TO.C,R32*%
X163046900Y-77956159D02*
X163046900Y-78263441D01*
X163806900Y-77956159D02*
X163806900Y-78263441D01*
%TO.C,R11*%
X166702259Y-79634800D02*
X167009541Y-79634800D01*
X166702259Y-80394800D02*
X167009541Y-80394800D01*
%TO.C,R51*%
X110872000Y-117402359D02*
X110872000Y-117709641D01*
X111632000Y-117402359D02*
X111632000Y-117709641D01*
%TO.C,U5*%
X113722000Y-122638000D02*
X113722000Y-123113001D01*
X113722000Y-126383000D02*
X113722000Y-126858000D01*
X113722000Y-126858000D02*
X114197001Y-126858000D01*
X114197000Y-122638000D02*
X113722000Y-122638000D01*
X117467000Y-126858000D02*
X117942000Y-126858000D01*
X117942000Y-122638000D02*
X117466999Y-122638000D01*
X117942000Y-123113000D02*
X117942000Y-122638000D01*
X117942000Y-126858000D02*
X117942000Y-126382999D01*
X113192001Y-125998000D02*
X112862000Y-125758000D01*
X112862000Y-126238000D01*
X113192001Y-125998000D01*
G36*
X113192001Y-125998000D02*
G01*
X112862000Y-126238000D01*
X112862000Y-125758000D01*
X113192001Y-125998000D01*
G37*
%TO.C,R85*%
X141834600Y-115753841D02*
X141834600Y-115446559D01*
X142594600Y-115753841D02*
X142594600Y-115446559D01*
%TO.C,R108*%
X147469000Y-117402359D02*
X147469000Y-117709641D01*
X148229000Y-117402359D02*
X148229000Y-117709641D01*
%TO.C,C1*%
X142734400Y-79711780D02*
X142734400Y-79430620D01*
X143754400Y-79711780D02*
X143754400Y-79430620D01*
%TO.C,R7*%
X135273600Y-90367959D02*
X135273600Y-90675241D01*
X136033600Y-90367959D02*
X136033600Y-90675241D01*
%TO.C,R87*%
X146914600Y-115753841D02*
X146914600Y-115446559D01*
X147674600Y-115753841D02*
X147674600Y-115446559D01*
%TO.C,C22*%
X143502036Y-86716602D02*
X143286364Y-86716602D01*
X143502036Y-87436602D02*
X143286364Y-87436602D01*
%TO.C,C29*%
X142884400Y-91769364D02*
X142884400Y-91985036D01*
X143604400Y-91769364D02*
X143604400Y-91985036D01*
%TO.C,C26*%
X136309600Y-91284166D02*
X136309600Y-91499838D01*
X137029600Y-91284166D02*
X137029600Y-91499838D01*
%TO.C,R79*%
X126594600Y-115753841D02*
X126594600Y-115446559D01*
X127354600Y-115753841D02*
X127354600Y-115446559D01*
%TO.C,R111*%
X155073250Y-117402359D02*
X155073250Y-117709641D01*
X155833250Y-117402359D02*
X155833250Y-117709641D01*
%TO.C,R76*%
X118974600Y-115753841D02*
X118974600Y-115446559D01*
X119734600Y-115753841D02*
X119734600Y-115446559D01*
%TO.C,C46*%
X122695580Y-88344000D02*
X122414420Y-88344000D01*
X122695580Y-89364000D02*
X122414420Y-89364000D01*
%TO.C,C24*%
X143359580Y-85271202D02*
X143078420Y-85271202D01*
X143359580Y-86291202D02*
X143078420Y-86291202D01*
%TO.C,C31*%
X139328400Y-91670364D02*
X139328400Y-91886036D01*
X140048400Y-91670364D02*
X140048400Y-91886036D01*
%TO.C,C4*%
X139582400Y-80390164D02*
X139582400Y-80605836D01*
X140302400Y-80390164D02*
X140302400Y-80605836D01*
%TO.C,C5*%
X136382000Y-80390164D02*
X136382000Y-80605836D01*
X137102000Y-80390164D02*
X137102000Y-80605836D01*
%TO.C,C16*%
X145399000Y-85000038D02*
X145399000Y-84784366D01*
X146119000Y-85000038D02*
X146119000Y-84784366D01*
%TO.C,C17*%
X147228564Y-86869002D02*
X147444236Y-86869002D01*
X147228564Y-87589002D02*
X147444236Y-87589002D01*
%TO.C,R2*%
X145150400Y-79129643D02*
X145150400Y-78822361D01*
X145910400Y-79129643D02*
X145910400Y-78822361D01*
%TO.C,C48*%
X123170836Y-89764000D02*
X122955164Y-89764000D01*
X123170836Y-90484000D02*
X122955164Y-90484000D01*
%TO.C,R55*%
X121032000Y-117402359D02*
X121032000Y-117709641D01*
X121792000Y-117402359D02*
X121792000Y-117709641D01*
%TO.C,C2*%
X137527400Y-80560620D02*
X137527400Y-80841780D01*
X138547400Y-80560620D02*
X138547400Y-80841780D01*
%TO.C,R95*%
X114332500Y-117402359D02*
X114332500Y-117709641D01*
X115092500Y-117402359D02*
X115092500Y-117709641D01*
%TO.C,C6*%
X134884164Y-83338400D02*
X135099836Y-83338400D01*
X134884164Y-84058400D02*
X135099836Y-84058400D01*
%TO.C,R17*%
X182852641Y-122790000D02*
X182545359Y-122790000D01*
X182852641Y-123550000D02*
X182545359Y-123550000D01*
%TO.C,R88*%
X149454600Y-115753841D02*
X149454600Y-115446559D01*
X150214600Y-115753841D02*
X150214600Y-115446559D01*
%TO.C,R24*%
X140437600Y-91674641D02*
X140437600Y-91367359D01*
X141197600Y-91674641D02*
X141197600Y-91367359D01*
%TO.C,R97*%
X119508000Y-117402359D02*
X119508000Y-117709641D01*
X120268000Y-117402359D02*
X120268000Y-117709641D01*
%TO.C,R18*%
X182852641Y-119470000D02*
X182545359Y-119470000D01*
X182852641Y-120230000D02*
X182545359Y-120230000D01*
%TO.C,R33*%
X183160641Y-81285800D02*
X182853359Y-81285800D01*
X183160641Y-82045800D02*
X182853359Y-82045800D01*
%TO.C,R69*%
X156585857Y-117402359D02*
X156585857Y-117709641D01*
X157345857Y-117402359D02*
X157345857Y-117709641D01*
%TO.C,R73*%
X182551359Y-117810000D02*
X182858641Y-117810000D01*
X182551359Y-118570000D02*
X182858641Y-118570000D01*
%TO.C,R64*%
X143855143Y-117402359D02*
X143855143Y-117709641D01*
X144615143Y-117402359D02*
X144615143Y-117709641D01*
%TO.C,R109*%
X150003750Y-117402359D02*
X150003750Y-117709641D01*
X150763750Y-117402359D02*
X150763750Y-117709641D01*
%TO.C,R68*%
X154039714Y-117402359D02*
X154039714Y-117709641D01*
X154799714Y-117402359D02*
X154799714Y-117709641D01*
%TO.C,R56*%
X123572000Y-117402359D02*
X123572000Y-117709641D01*
X124332000Y-117402359D02*
X124332000Y-117709641D01*
%TO.C,R98*%
X122048000Y-117402359D02*
X122048000Y-117709641D01*
X122808000Y-117402359D02*
X122808000Y-117709641D01*
%TO.C,R100*%
X127128000Y-117402359D02*
X127128000Y-117709641D01*
X127888000Y-117402359D02*
X127888000Y-117709641D01*
%TO.C,U12*%
X132412000Y-122638000D02*
X132412000Y-123113000D01*
X132412000Y-126383000D02*
X132412000Y-126858000D01*
X132412000Y-126858000D02*
X132887000Y-126858000D01*
X132887000Y-122638000D02*
X132412000Y-122638000D01*
X136157000Y-126858000D02*
X136632000Y-126858000D01*
X136632000Y-122638000D02*
X136157000Y-122638000D01*
X136632000Y-123113000D02*
X136632000Y-122638000D01*
X136632000Y-126858000D02*
X136632000Y-126383000D01*
X131882000Y-125998000D02*
X131552000Y-125758000D01*
X131552000Y-126238000D01*
X131882000Y-125998000D01*
G36*
X131882000Y-125998000D02*
G01*
X131552000Y-126238000D01*
X131552000Y-125758000D01*
X131882000Y-125998000D01*
G37*
%TO.C,C27*%
X138312400Y-90880364D02*
X138312400Y-91096036D01*
X139032400Y-90880364D02*
X139032400Y-91096036D01*
%TO.C,R80*%
X129134600Y-115753841D02*
X129134600Y-115446559D01*
X129894600Y-115753841D02*
X129894600Y-115446559D01*
%TO.C,R61*%
X136272000Y-117402359D02*
X136272000Y-117709641D01*
X137032000Y-117402359D02*
X137032000Y-117709641D01*
%TO.C,C47*%
X122695580Y-90884000D02*
X122414420Y-90884000D01*
X122695580Y-91904000D02*
X122414420Y-91904000D01*
%TO.C,C20*%
X138407400Y-87814036D02*
X138407400Y-87598364D01*
X139127400Y-87814036D02*
X139127400Y-87598364D01*
%TO.C,R65*%
X146401286Y-117402359D02*
X146401286Y-117709641D01*
X147161286Y-117402359D02*
X147161286Y-117709641D01*
%TO.C,R77*%
X121514600Y-115753841D02*
X121514600Y-115446559D01*
X122274600Y-115753841D02*
X122274600Y-115446559D01*
%TO.C,R53*%
X115952000Y-117402359D02*
X115952000Y-117709641D01*
X116712000Y-117402359D02*
X116712000Y-117709641D01*
%TO.C,R1*%
X133140000Y-78785559D02*
X133140000Y-79092841D01*
X133900000Y-78785559D02*
X133900000Y-79092841D01*
%TO.C,C23*%
X137296400Y-90880364D02*
X137296400Y-91096036D01*
X138016400Y-90880364D02*
X138016400Y-91096036D01*
%TO.C,R110*%
X152538500Y-117402359D02*
X152538500Y-117709641D01*
X153298500Y-117402359D02*
X153298500Y-117709641D01*
%TO.C,C11*%
X133193436Y-80865200D02*
X132977764Y-80865200D01*
X133193436Y-81585200D02*
X132977764Y-81585200D01*
%TO.C,R107*%
X144934250Y-117402359D02*
X144934250Y-117709641D01*
X145694250Y-117402359D02*
X145694250Y-117709641D01*
%TO.C,C41*%
X166368900Y-87996636D02*
X166368900Y-87780964D01*
X167088900Y-87996636D02*
X167088900Y-87780964D01*
%TO.C,R92*%
X159640000Y-110597641D02*
X159640000Y-110290359D01*
X160400000Y-110597641D02*
X160400000Y-110290359D01*
%TO.C,R16*%
X182852641Y-126110000D02*
X182545359Y-126110000D01*
X182852641Y-126870000D02*
X182545359Y-126870000D01*
%TO.C,R113*%
X160142750Y-117402359D02*
X160142750Y-117709641D01*
X160902750Y-117402359D02*
X160902750Y-117709641D01*
%TO.C,R54*%
X118492000Y-117402359D02*
X118492000Y-117709641D01*
X119252000Y-117402359D02*
X119252000Y-117709641D01*
%TO.C,C8*%
X146417400Y-79482582D02*
X146417400Y-79201422D01*
X147437400Y-79482582D02*
X147437400Y-79201422D01*
%TO.C,R5*%
X151775641Y-86821502D02*
X151468359Y-86821502D01*
X151775641Y-87581502D02*
X151468359Y-87581502D01*
%TO.C,C9*%
X143479236Y-81179402D02*
X143263564Y-81179402D01*
X143479236Y-81899402D02*
X143263564Y-81899402D01*
%TO.C,C10*%
X143479236Y-82170002D02*
X143263564Y-82170002D01*
X143479236Y-82890002D02*
X143263564Y-82890002D01*
%TO.C,R66*%
X148947429Y-117402359D02*
X148947429Y-117709641D01*
X149707429Y-117402359D02*
X149707429Y-117709641D01*
%TO.C,C19*%
X137407400Y-87794036D02*
X137407400Y-87578364D01*
X138127400Y-87794036D02*
X138127400Y-87578364D01*
%TO.C,R63*%
X141309000Y-117402359D02*
X141309000Y-117709641D01*
X142069000Y-117402359D02*
X142069000Y-117709641D01*
%TO.C,R34*%
X181562441Y-72192600D02*
X181255159Y-72192600D01*
X181562441Y-72952600D02*
X181255159Y-72952600D01*
%TO.C,R13*%
X162030900Y-77956159D02*
X162030900Y-78263441D01*
X162790900Y-77956159D02*
X162790900Y-78263441D01*
%TO.C,R114*%
X182545359Y-114490000D02*
X182852641Y-114490000D01*
X182545359Y-115250000D02*
X182852641Y-115250000D01*
%TO.C,R70*%
X159132000Y-117402359D02*
X159132000Y-117709641D01*
X159892000Y-117402359D02*
X159892000Y-117709641D01*
%TO.C,R75*%
X116434600Y-115753841D02*
X116434600Y-115446559D01*
X117194600Y-115753841D02*
X117194600Y-115446559D01*
%TO.C,R103*%
X134748000Y-117402359D02*
X134748000Y-117709641D01*
X135508000Y-117402359D02*
X135508000Y-117709641D01*
%TO.C,C30*%
X151534964Y-87857502D02*
X151750636Y-87857502D01*
X151534964Y-88577502D02*
X151750636Y-88577502D01*
%TO.C,R106*%
X142399500Y-117402359D02*
X142399500Y-117709641D01*
X143159500Y-117402359D02*
X143159500Y-117709641D01*
%TO.C,U4*%
X160748400Y-80571800D02*
X160748400Y-80921800D01*
X160748400Y-84441800D02*
X160748400Y-84791800D01*
X160748400Y-84791800D02*
X161098400Y-84791800D01*
X161098400Y-80571800D02*
X160748400Y-80571800D01*
X164618400Y-84791800D02*
X164968400Y-84791800D01*
X164968400Y-80571800D02*
X164618400Y-80571800D01*
X164968400Y-80921800D02*
X164968400Y-80571800D01*
X164968400Y-84791800D02*
X164968400Y-84441800D01*
X164258400Y-85291800D02*
X164018400Y-85621800D01*
X164498400Y-85621800D01*
X164258400Y-85291800D01*
G36*
X164498400Y-85621800D02*
G01*
X164018400Y-85621800D01*
X164258400Y-85291800D01*
X164498400Y-85621800D01*
G37*
%TO.C,R86*%
X144374600Y-115753841D02*
X144374600Y-115446559D01*
X145134600Y-115753841D02*
X145134600Y-115446559D01*
%TO.C,R112*%
X157608000Y-117402359D02*
X157608000Y-117709641D01*
X158368000Y-117402359D02*
X158368000Y-117709641D01*
%TO.C,R57*%
X126112000Y-117402359D02*
X126112000Y-117709641D01*
X126872000Y-117402359D02*
X126872000Y-117709641D01*
%TO.C,R99*%
X124588000Y-117402359D02*
X124588000Y-117709641D01*
X125348000Y-117402359D02*
X125348000Y-117709641D01*
%TO.C,U11*%
X164082000Y-122638000D02*
X164082000Y-123113000D01*
X164082000Y-126383000D02*
X164082000Y-126858000D01*
X164082000Y-126858000D02*
X164557000Y-126858000D01*
X164557000Y-122638000D02*
X164082000Y-122638000D01*
X167827000Y-126858000D02*
X168302000Y-126858000D01*
X168302000Y-122638000D02*
X167827000Y-122638000D01*
X168302000Y-123113000D02*
X168302000Y-122638000D01*
X168302000Y-126858000D02*
X168302000Y-126383000D01*
X163552000Y-125998000D02*
X163222000Y-125758000D01*
X163222000Y-126238000D01*
X163552000Y-125998000D01*
G36*
X163552000Y-125998000D02*
G01*
X163222000Y-126238000D01*
X163222000Y-125758000D01*
X163552000Y-125998000D01*
G37*
%TO.C,R67*%
X151493571Y-117402359D02*
X151493571Y-117709641D01*
X152253571Y-117402359D02*
X152253571Y-117709641D01*
%TO.C,R81*%
X131674600Y-115753841D02*
X131674600Y-115446559D01*
X132434600Y-115753841D02*
X132434600Y-115446559D01*
%TO.C,R59*%
X131176125Y-117402359D02*
X131176125Y-117709641D01*
X131936125Y-117402359D02*
X131936125Y-117709641D01*
%TO.C,C18*%
X136407400Y-87794036D02*
X136407400Y-87578364D01*
X137127400Y-87794036D02*
X137127400Y-87578364D01*
%TO.C,J4*%
X114190000Y-73550000D02*
X114190000Y-74930000D01*
X115570000Y-73550000D02*
X114190000Y-73550000D01*
X116840000Y-73550000D02*
X116840000Y-76310000D01*
X116840000Y-73550000D02*
X139810000Y-73550000D01*
X116840000Y-76310000D02*
X139810000Y-76310000D01*
X139810000Y-73550000D02*
X139810000Y-76310000D01*
%TO.C,R91*%
X157074600Y-115753841D02*
X157074600Y-115446559D01*
X157834600Y-115753841D02*
X157834600Y-115446559D01*
%TO.C,C3*%
X141233400Y-80174036D02*
X141233400Y-79958364D01*
X141953400Y-80174036D02*
X141953400Y-79958364D01*
%TO.C,R102*%
X132208000Y-117402359D02*
X132208000Y-117709641D01*
X132968000Y-117402359D02*
X132968000Y-117709641D01*
%TO.C,R50*%
X164085000Y-77956159D02*
X164085000Y-78263441D01*
X164845000Y-77956159D02*
X164845000Y-78263441D01*
%TO.C,R94*%
X111888000Y-117402359D02*
X111888000Y-117709641D01*
X112648000Y-117402359D02*
X112648000Y-117709641D01*
%TO.C,R104*%
X137288000Y-117402359D02*
X137288000Y-117709641D01*
X138048000Y-117402359D02*
X138048000Y-117709641D01*
%TO.C,J2*%
X140860000Y-73550000D02*
X140860000Y-74930000D01*
X142240000Y-73550000D02*
X140860000Y-73550000D01*
X143510000Y-73550000D02*
X143510000Y-76310000D01*
X143510000Y-73550000D02*
X161400000Y-73550000D01*
X143510000Y-76310000D02*
X161400000Y-76310000D01*
X161400000Y-73550000D02*
X161400000Y-76310000D01*
%TO.C,R96*%
X116968000Y-117402359D02*
X116968000Y-117709641D01*
X117728000Y-117402359D02*
X117728000Y-117709641D01*
%TO.C,R78*%
X124054600Y-115753841D02*
X124054600Y-115446559D01*
X124814600Y-115753841D02*
X124814600Y-115446559D01*
%TO.C,R90*%
X154534600Y-115753841D02*
X154534600Y-115446559D01*
X155294600Y-115753841D02*
X155294600Y-115446559D01*
%TO.C,R74*%
X113894600Y-115753841D02*
X113894600Y-115446559D01*
X114654600Y-115753841D02*
X114654600Y-115446559D01*
%TO.C,C32*%
X143502036Y-87732602D02*
X143286364Y-87732602D01*
X143502036Y-88452602D02*
X143286364Y-88452602D01*
%TO.C,R60*%
X133732000Y-117402359D02*
X133732000Y-117709641D01*
X134492000Y-117402359D02*
X134492000Y-117709641D01*
%TO.C,C42*%
X161034900Y-87780964D02*
X161034900Y-87996636D01*
X161754900Y-87780964D02*
X161754900Y-87996636D01*
%TO.C,C7*%
X145275836Y-80162000D02*
X145060164Y-80162000D01*
X145275836Y-80882000D02*
X145060164Y-80882000D01*
%TO.C,R89*%
X151994600Y-115753841D02*
X151994600Y-115446559D01*
X152754600Y-115753841D02*
X152754600Y-115446559D01*
%TO.C,Y2*%
X162001900Y-86178800D02*
X166121900Y-86178800D01*
X162001900Y-89598800D02*
X162001900Y-86178800D01*
%TO.C,R6*%
X152897400Y-87890643D02*
X152897400Y-87583361D01*
X153657400Y-87890643D02*
X153657400Y-87583361D01*
%TO.C,R12*%
X165559259Y-85222800D02*
X165866541Y-85222800D01*
X165559259Y-85982800D02*
X165866541Y-85982800D01*
%TO.C,R82*%
X134214600Y-115753841D02*
X134214600Y-115446559D01*
X134974600Y-115753841D02*
X134974600Y-115446559D01*
%TO.C,R93*%
X182545359Y-116150000D02*
X182852641Y-116150000D01*
X182545359Y-116910000D02*
X182852641Y-116910000D01*
%TO.C,C44*%
X178526164Y-81725000D02*
X178741836Y-81725000D01*
X178526164Y-82445000D02*
X178741836Y-82445000D01*
%TO.C,C43*%
X178504964Y-83058400D02*
X178720636Y-83058400D01*
X178504964Y-83778400D02*
X178720636Y-83778400D01*
%TO.C,C15*%
X145373600Y-82889238D02*
X145373600Y-82673566D01*
X146093600Y-82889238D02*
X146093600Y-82673566D01*
%TO.C,R101*%
X129668000Y-117402359D02*
X129668000Y-117709641D01*
X130428000Y-117402359D02*
X130428000Y-117709641D01*
%TO.C,R83*%
X136754600Y-115753841D02*
X136754600Y-115446559D01*
X137514600Y-115753841D02*
X137514600Y-115446559D01*
%TD*%
%LPC*%
D11*
%TO.C,J20*%
X105415000Y-107650000D03*
X105415000Y-105110000D03*
X105415000Y-102570000D03*
X105415000Y-100030000D03*
X105415000Y-97490000D03*
X105415000Y-94950000D03*
%TD*%
%TO.C,J10*%
X114305000Y-100030000D03*
X116845000Y-100030000D03*
X119385000Y-100030000D03*
X121925000Y-100030000D03*
X124465000Y-100030000D03*
X127005000Y-100030000D03*
X129545000Y-100030000D03*
X132085000Y-100030000D03*
X134625000Y-100030000D03*
X137165000Y-100030000D03*
X139705000Y-100030000D03*
X142245000Y-100030000D03*
X144785000Y-100030000D03*
X147325000Y-100030000D03*
X149865000Y-100030000D03*
X152405000Y-100030000D03*
X154945000Y-100030000D03*
X157485000Y-100030000D03*
X160025000Y-100030000D03*
%TD*%
%TO.C,J8*%
X126995000Y-122890000D03*
X129535000Y-122890000D03*
%TD*%
D12*
%TO.C,REF\u002A\u002A*%
X177800000Y-125430000D03*
%TD*%
D11*
%TO.C,J6*%
X114305000Y-97490000D03*
X116845000Y-97490000D03*
X119385000Y-97490000D03*
X121925000Y-97490000D03*
X124465000Y-97490000D03*
X127005000Y-97490000D03*
X129545000Y-97490000D03*
X132085000Y-97490000D03*
X134625000Y-97490000D03*
X137165000Y-97490000D03*
X139705000Y-97490000D03*
X142245000Y-97490000D03*
X144785000Y-97490000D03*
X147325000Y-97490000D03*
X149865000Y-97490000D03*
X152405000Y-97490000D03*
X154945000Y-97490000D03*
X157485000Y-97490000D03*
X160025000Y-97490000D03*
%TD*%
D13*
%TO.C,J13*%
X111384600Y-77424000D03*
D14*
X111384600Y-79924000D03*
X111384600Y-81924000D03*
X111384600Y-84424000D03*
X108764600Y-77424000D03*
X108764600Y-79924000D03*
X108764600Y-81924000D03*
X108764600Y-84424000D03*
D15*
X111734600Y-74354000D03*
X106054600Y-74354000D03*
X111734600Y-87494000D03*
X106054600Y-87494000D03*
%TD*%
D16*
%TO.C,J3*%
X179742000Y-102920000D03*
X179742000Y-97140000D03*
D17*
X179242000Y-104350000D03*
D18*
X183422000Y-104350000D03*
D17*
X179242000Y-95710000D03*
D18*
X183422000Y-95710000D03*
%TD*%
D11*
%TO.C,J15*%
X114305000Y-107650000D03*
X116845000Y-107650000D03*
X119385000Y-107650000D03*
X121925000Y-107650000D03*
X124465000Y-107650000D03*
X127005000Y-107650000D03*
X129545000Y-107650000D03*
X132085000Y-107650000D03*
X134625000Y-107650000D03*
X137165000Y-107650000D03*
X139705000Y-107650000D03*
X142245000Y-107650000D03*
X144785000Y-107650000D03*
X147325000Y-107650000D03*
X149865000Y-107650000D03*
X152405000Y-107650000D03*
X154945000Y-107650000D03*
X157485000Y-107650000D03*
X160025000Y-107650000D03*
%TD*%
%TO.C,J11*%
X114305000Y-105110000D03*
X116845000Y-105110000D03*
X119385000Y-105110000D03*
X121925000Y-105110000D03*
X124465000Y-105110000D03*
X127005000Y-105110000D03*
X129545000Y-105110000D03*
X132085000Y-105110000D03*
X134625000Y-105110000D03*
X137165000Y-105110000D03*
X139705000Y-105110000D03*
X142245000Y-105110000D03*
X144785000Y-105110000D03*
X147325000Y-105110000D03*
X149865000Y-105110000D03*
X152405000Y-105110000D03*
X154945000Y-105110000D03*
X157485000Y-105110000D03*
X160025000Y-105110000D03*
%TD*%
D19*
%TO.C,SW2*%
X183399000Y-72395000D03*
X183399000Y-68145000D03*
%TD*%
D12*
%TO.C,REF\u002A\u002A*%
X106680000Y-69550000D03*
%TD*%
D19*
%TO.C,SW1*%
X183499000Y-112315000D03*
X183499000Y-108065000D03*
%TD*%
D11*
%TO.C,J7*%
X114305000Y-102570000D03*
X116845000Y-102570000D03*
X119385000Y-102570000D03*
X121925000Y-102570000D03*
X124465000Y-102570000D03*
X127005000Y-102570000D03*
X129545000Y-102570000D03*
X132085000Y-102570000D03*
X134625000Y-102570000D03*
X137165000Y-102570000D03*
X139705000Y-102570000D03*
X142245000Y-102570000D03*
X144785000Y-102570000D03*
X147325000Y-102570000D03*
X149865000Y-102570000D03*
X152405000Y-102570000D03*
X154945000Y-102570000D03*
X157485000Y-102570000D03*
X160025000Y-102570000D03*
%TD*%
%TO.C,J12*%
X114305000Y-94950000D03*
X116845000Y-94950000D03*
X119385000Y-94950000D03*
X121925000Y-94950000D03*
X124465000Y-94950000D03*
X127005000Y-94950000D03*
X129545000Y-94950000D03*
X132085000Y-94950000D03*
X134625000Y-94950000D03*
X137165000Y-94950000D03*
X139705000Y-94950000D03*
X142245000Y-94950000D03*
X144785000Y-94950000D03*
X147325000Y-94950000D03*
X149865000Y-94950000D03*
X152405000Y-94950000D03*
X154945000Y-94950000D03*
X157485000Y-94950000D03*
X160025000Y-94950000D03*
%TD*%
D20*
%TO.C,J19*%
X179024000Y-87460000D03*
X179024000Y-76030000D03*
D21*
X172664000Y-86185000D03*
D14*
X170124000Y-84925000D03*
X172664000Y-83645000D03*
X170124000Y-82385000D03*
X172664000Y-81105000D03*
X170124000Y-79845000D03*
X172664000Y-78565000D03*
X170124000Y-77305000D03*
X183924000Y-88370000D03*
X183924000Y-85830000D03*
X183924000Y-77660000D03*
X183924000Y-75120000D03*
D22*
X175974000Y-89490000D03*
X175974000Y-74000000D03*
%TD*%
D12*
%TO.C,REF\u002A\u002A*%
X177800000Y-69550000D03*
%TD*%
D23*
%TO.C,J18*%
X125730000Y-79075000D03*
D11*
X125730000Y-81615000D03*
X123190000Y-79075000D03*
X123190000Y-81615000D03*
X120650000Y-79075000D03*
X120650000Y-81615000D03*
X118110000Y-79075000D03*
X118110000Y-81615000D03*
X115570000Y-79075000D03*
X115570000Y-81615000D03*
%TD*%
D12*
%TO.C,REF\u002A\u002A*%
X106680000Y-125430000D03*
%TD*%
D11*
%TO.C,J5*%
X111760000Y-120350000D03*
X114300000Y-120350000D03*
X116840000Y-120350000D03*
X119380000Y-120350000D03*
X121920000Y-120350000D03*
X124460000Y-120350000D03*
X127000000Y-120350000D03*
X129540000Y-120350000D03*
X132080000Y-120350000D03*
X134620000Y-120350000D03*
X137160000Y-120350000D03*
X139700000Y-120350000D03*
X142240000Y-120350000D03*
X144780000Y-120350000D03*
X147320000Y-120350000D03*
X149860000Y-120350000D03*
X152400000Y-120350000D03*
X154940000Y-120350000D03*
X157480000Y-120350000D03*
X160020000Y-120350000D03*
%TD*%
D24*
%TO.C,R105*%
X140244750Y-117046000D03*
X140244750Y-118066000D03*
%TD*%
D25*
%TO.C,R84*%
X139674600Y-116110200D03*
X139674600Y-115090200D03*
%TD*%
D24*
%TO.C,R62*%
X139192000Y-117046000D03*
X139192000Y-118066000D03*
%TD*%
%TO.C,R58*%
X129000250Y-117046000D03*
X129000250Y-118066000D03*
%TD*%
D26*
%TO.C,C13*%
X133570800Y-82241200D03*
X132610800Y-82241200D03*
%TD*%
D24*
%TO.C,R52*%
X113665000Y-117046000D03*
X113665000Y-118066000D03*
%TD*%
%TO.C,R32*%
X163426900Y-77599800D03*
X163426900Y-78619800D03*
%TD*%
D27*
%TO.C,R11*%
X166345900Y-80014800D03*
X167365900Y-80014800D03*
%TD*%
D24*
%TO.C,R51*%
X111252000Y-117046000D03*
X111252000Y-118066000D03*
%TD*%
D28*
%TO.C,U5*%
X113844500Y-125998000D03*
X113844500Y-125498000D03*
X113844500Y-124998000D03*
X113844500Y-124498000D03*
X113844500Y-123997999D03*
X113844500Y-123498000D03*
D29*
X114582000Y-122760500D03*
X115082000Y-122760500D03*
X115582000Y-122760500D03*
X116082000Y-122760500D03*
X116582001Y-122760500D03*
X117082000Y-122760500D03*
D28*
X117819500Y-123498000D03*
X117819500Y-123998000D03*
X117819500Y-124498000D03*
X117819500Y-124998000D03*
X117819500Y-125498001D03*
X117819500Y-125998000D03*
D29*
X117082000Y-126735500D03*
X116582000Y-126735500D03*
X116082000Y-126735500D03*
X115582000Y-126735500D03*
X115081999Y-126735500D03*
X114582000Y-126735500D03*
D30*
X115832000Y-124748000D03*
%TD*%
D25*
%TO.C,R85*%
X142214600Y-116110200D03*
X142214600Y-115090200D03*
%TD*%
D24*
%TO.C,R108*%
X147849000Y-117046000D03*
X147849000Y-118066000D03*
%TD*%
D31*
%TO.C,C1*%
X143244400Y-80346200D03*
X143244400Y-78796200D03*
%TD*%
D24*
%TO.C,R7*%
X135653600Y-90011600D03*
X135653600Y-91031600D03*
%TD*%
D25*
%TO.C,R87*%
X147294600Y-116110200D03*
X147294600Y-115090200D03*
%TD*%
D26*
%TO.C,C22*%
X143874200Y-87076602D03*
X142914200Y-87076602D03*
%TD*%
D32*
%TO.C,C29*%
X143244400Y-91397200D03*
X143244400Y-92357200D03*
%TD*%
%TO.C,C26*%
X136669600Y-90912002D03*
X136669600Y-91872002D03*
%TD*%
D25*
%TO.C,R79*%
X126974600Y-116110200D03*
X126974600Y-115090200D03*
%TD*%
D24*
%TO.C,R111*%
X155453250Y-117046000D03*
X155453250Y-118066000D03*
%TD*%
D25*
%TO.C,R76*%
X119354600Y-116110200D03*
X119354600Y-115090200D03*
%TD*%
D33*
%TO.C,C46*%
X123330000Y-88854000D03*
X121780000Y-88854000D03*
%TD*%
%TO.C,C24*%
X143994000Y-85781202D03*
X142444000Y-85781202D03*
%TD*%
D32*
%TO.C,C31*%
X139688400Y-91298200D03*
X139688400Y-92258200D03*
%TD*%
%TO.C,C4*%
X139942400Y-80018000D03*
X139942400Y-80978000D03*
%TD*%
%TO.C,C5*%
X136742000Y-80018000D03*
X136742000Y-80978000D03*
%TD*%
D34*
%TO.C,C16*%
X145759000Y-85372202D03*
X145759000Y-84412202D03*
%TD*%
D35*
%TO.C,C17*%
X146856400Y-87229002D03*
X147816400Y-87229002D03*
%TD*%
D25*
%TO.C,R2*%
X145530400Y-79486002D03*
X145530400Y-78466002D03*
%TD*%
D26*
%TO.C,C48*%
X123543000Y-90124000D03*
X122583000Y-90124000D03*
%TD*%
D24*
%TO.C,R55*%
X121412000Y-117046000D03*
X121412000Y-118066000D03*
%TD*%
D36*
%TO.C,C2*%
X138037400Y-79926200D03*
X138037400Y-81476200D03*
%TD*%
D24*
%TO.C,R95*%
X114712500Y-117046000D03*
X114712500Y-118066000D03*
%TD*%
D35*
%TO.C,C6*%
X134512000Y-83698400D03*
X135472000Y-83698400D03*
%TD*%
D37*
%TO.C,R17*%
X183209000Y-123170000D03*
X182189000Y-123170000D03*
%TD*%
D25*
%TO.C,R88*%
X149834600Y-116110200D03*
X149834600Y-115090200D03*
%TD*%
%TO.C,R24*%
X140817600Y-92031000D03*
X140817600Y-91011000D03*
%TD*%
D24*
%TO.C,R97*%
X119888000Y-117046000D03*
X119888000Y-118066000D03*
%TD*%
D37*
%TO.C,R18*%
X183209000Y-119850000D03*
X182189000Y-119850000D03*
%TD*%
%TO.C,R33*%
X183517000Y-81665800D03*
X182497000Y-81665800D03*
%TD*%
D24*
%TO.C,R69*%
X156965857Y-117046000D03*
X156965857Y-118066000D03*
%TD*%
D27*
%TO.C,R73*%
X182195000Y-118190000D03*
X183215000Y-118190000D03*
%TD*%
D24*
%TO.C,R64*%
X144235143Y-117046000D03*
X144235143Y-118066000D03*
%TD*%
%TO.C,R109*%
X150383750Y-117046000D03*
X150383750Y-118066000D03*
%TD*%
%TO.C,R68*%
X154419714Y-117046000D03*
X154419714Y-118066000D03*
%TD*%
%TO.C,R56*%
X123952000Y-117046000D03*
X123952000Y-118066000D03*
%TD*%
%TO.C,R98*%
X122428000Y-117046000D03*
X122428000Y-118066000D03*
%TD*%
%TO.C,R100*%
X127508000Y-117046000D03*
X127508000Y-118066000D03*
%TD*%
D28*
%TO.C,U12*%
X132534500Y-125998000D03*
X132534500Y-125498000D03*
X132534500Y-124998000D03*
X132534500Y-124498000D03*
X132534500Y-123998000D03*
X132534500Y-123498000D03*
D29*
X133272000Y-122760500D03*
X133772000Y-122760500D03*
X134272000Y-122760500D03*
X134772000Y-122760500D03*
X135272000Y-122760500D03*
X135772000Y-122760500D03*
D28*
X136509500Y-123498000D03*
X136509500Y-123998000D03*
X136509500Y-124498000D03*
X136509500Y-124998000D03*
X136509500Y-125498000D03*
X136509500Y-125998000D03*
D29*
X135772000Y-126735500D03*
X135272000Y-126735500D03*
X134772000Y-126735500D03*
X134272000Y-126735500D03*
X133772000Y-126735500D03*
X133272000Y-126735500D03*
D30*
X134522000Y-124748000D03*
%TD*%
D32*
%TO.C,C27*%
X138672400Y-90508200D03*
X138672400Y-91468200D03*
%TD*%
D25*
%TO.C,R80*%
X129514600Y-116110200D03*
X129514600Y-115090200D03*
%TD*%
D24*
%TO.C,R61*%
X136652000Y-117046000D03*
X136652000Y-118066000D03*
%TD*%
D33*
%TO.C,C47*%
X123330000Y-91394000D03*
X121780000Y-91394000D03*
%TD*%
D34*
%TO.C,C20*%
X138767400Y-88186200D03*
X138767400Y-87226200D03*
%TD*%
D24*
%TO.C,R65*%
X146781286Y-117046000D03*
X146781286Y-118066000D03*
%TD*%
D25*
%TO.C,R77*%
X121894600Y-116110200D03*
X121894600Y-115090200D03*
%TD*%
D24*
%TO.C,R53*%
X116332000Y-117046000D03*
X116332000Y-118066000D03*
%TD*%
%TO.C,R1*%
X133520000Y-78429200D03*
X133520000Y-79449200D03*
%TD*%
D32*
%TO.C,C23*%
X137656400Y-90508200D03*
X137656400Y-91468200D03*
%TD*%
D24*
%TO.C,R110*%
X152918500Y-117046000D03*
X152918500Y-118066000D03*
%TD*%
D26*
%TO.C,C11*%
X133565600Y-81225200D03*
X132605600Y-81225200D03*
%TD*%
D24*
%TO.C,R107*%
X145314250Y-117046000D03*
X145314250Y-118066000D03*
%TD*%
D34*
%TO.C,C41*%
X166728900Y-88368800D03*
X166728900Y-87408800D03*
%TD*%
D25*
%TO.C,R92*%
X160020000Y-110954000D03*
X160020000Y-109934000D03*
%TD*%
D37*
%TO.C,R16*%
X183209000Y-126490000D03*
X182189000Y-126490000D03*
%TD*%
D24*
%TO.C,R113*%
X160522750Y-117046000D03*
X160522750Y-118066000D03*
%TD*%
%TO.C,R54*%
X118872000Y-117046000D03*
X118872000Y-118066000D03*
%TD*%
D31*
%TO.C,C8*%
X146927400Y-80117002D03*
X146927400Y-78567002D03*
%TD*%
D37*
%TO.C,R5*%
X152132000Y-87201502D03*
X151112000Y-87201502D03*
%TD*%
D26*
%TO.C,C9*%
X143851400Y-81539402D03*
X142891400Y-81539402D03*
%TD*%
%TO.C,C10*%
X143851400Y-82530002D03*
X142891400Y-82530002D03*
%TD*%
D24*
%TO.C,R66*%
X149327429Y-117046000D03*
X149327429Y-118066000D03*
%TD*%
D34*
%TO.C,C19*%
X137767400Y-88166200D03*
X137767400Y-87206200D03*
%TD*%
D24*
%TO.C,R63*%
X141689000Y-117046000D03*
X141689000Y-118066000D03*
%TD*%
D37*
%TO.C,R34*%
X181918800Y-72572600D03*
X180898800Y-72572600D03*
%TD*%
D24*
%TO.C,R13*%
X162410900Y-77599800D03*
X162410900Y-78619800D03*
%TD*%
D27*
%TO.C,R114*%
X182189000Y-114870000D03*
X183209000Y-114870000D03*
%TD*%
D24*
%TO.C,R70*%
X159512000Y-117046000D03*
X159512000Y-118066000D03*
%TD*%
D25*
%TO.C,R75*%
X116814600Y-116110200D03*
X116814600Y-115090200D03*
%TD*%
D24*
%TO.C,R103*%
X135128000Y-117046000D03*
X135128000Y-118066000D03*
%TD*%
D35*
%TO.C,C30*%
X151162800Y-88217502D03*
X152122800Y-88217502D03*
%TD*%
D24*
%TO.C,R106*%
X142779500Y-117046000D03*
X142779500Y-118066000D03*
%TD*%
D38*
%TO.C,U4*%
X164258400Y-84631800D03*
D39*
X163858400Y-84631800D03*
X163458400Y-84631800D03*
X163058400Y-84631800D03*
X162658400Y-84631800D03*
X162258400Y-84631800D03*
X161858400Y-84631800D03*
D40*
X161458400Y-84631800D03*
D41*
X160908400Y-84081800D03*
D42*
X160908400Y-83681800D03*
X160908400Y-83281800D03*
X160908400Y-82881800D03*
X160908400Y-82481800D03*
X160908400Y-82081800D03*
X160908400Y-81681800D03*
D43*
X160908400Y-81281800D03*
D44*
X161458400Y-80731800D03*
D39*
X161858400Y-80731800D03*
X162258400Y-80731800D03*
X162658400Y-80731800D03*
X163058400Y-80731800D03*
X163458400Y-80731800D03*
X163858400Y-80731800D03*
D45*
X164258400Y-80731800D03*
D46*
X164808400Y-81281800D03*
D42*
X164808400Y-81681800D03*
X164808400Y-82081800D03*
X164808400Y-82481800D03*
X164808400Y-82881800D03*
X164808400Y-83281800D03*
X164808400Y-83681800D03*
D47*
X164808400Y-84081800D03*
D48*
X162858400Y-82681800D03*
%TD*%
D25*
%TO.C,R86*%
X144754600Y-116110200D03*
X144754600Y-115090200D03*
%TD*%
D24*
%TO.C,R112*%
X157988000Y-117046000D03*
X157988000Y-118066000D03*
%TD*%
%TO.C,R57*%
X126492000Y-117046000D03*
X126492000Y-118066000D03*
%TD*%
%TO.C,R99*%
X124968000Y-117046000D03*
X124968000Y-118066000D03*
%TD*%
D28*
%TO.C,U11*%
X164204500Y-125998000D03*
X164204500Y-125498000D03*
X164204500Y-124998000D03*
X164204500Y-124498000D03*
X164204500Y-123998000D03*
X164204500Y-123498000D03*
D29*
X164942000Y-122760500D03*
X165442000Y-122760500D03*
X165942000Y-122760500D03*
X166442000Y-122760500D03*
X166942000Y-122760500D03*
X167442000Y-122760500D03*
D28*
X168179500Y-123498000D03*
X168179500Y-123998000D03*
X168179500Y-124498000D03*
X168179500Y-124998000D03*
X168179500Y-125498000D03*
X168179500Y-125998000D03*
D29*
X167442000Y-126735500D03*
X166942000Y-126735500D03*
X166442000Y-126735500D03*
X165942000Y-126735500D03*
X165442000Y-126735500D03*
X164942000Y-126735500D03*
D30*
X166192000Y-124748000D03*
%TD*%
D24*
%TO.C,R67*%
X151873571Y-117046000D03*
X151873571Y-118066000D03*
%TD*%
D25*
%TO.C,R81*%
X132054600Y-116110200D03*
X132054600Y-115090200D03*
%TD*%
D24*
%TO.C,R59*%
X131556125Y-117046000D03*
X131556125Y-118066000D03*
%TD*%
D34*
%TO.C,C18*%
X136767400Y-88166200D03*
X136767400Y-87206200D03*
%TD*%
D23*
%TO.C,J4*%
X115570000Y-74930000D03*
D11*
X118110000Y-74930000D03*
X120650000Y-74930000D03*
X123190000Y-74930000D03*
X125730000Y-74930000D03*
X128270000Y-74930000D03*
X130810000Y-74930000D03*
X133350000Y-74930000D03*
X135890000Y-74930000D03*
X138430000Y-74930000D03*
%TD*%
D25*
%TO.C,R91*%
X157454600Y-116110200D03*
X157454600Y-115090200D03*
%TD*%
D34*
%TO.C,C3*%
X141593400Y-80546200D03*
X141593400Y-79586200D03*
%TD*%
D24*
%TO.C,R102*%
X132588000Y-117046000D03*
X132588000Y-118066000D03*
%TD*%
%TO.C,R50*%
X164465000Y-77599800D03*
X164465000Y-78619800D03*
%TD*%
%TO.C,R94*%
X112268000Y-117046000D03*
X112268000Y-118066000D03*
%TD*%
%TO.C,R104*%
X137668000Y-117046000D03*
X137668000Y-118066000D03*
%TD*%
D23*
%TO.C,J2*%
X142240000Y-74930000D03*
D11*
X144780000Y-74930000D03*
X147320000Y-74930000D03*
X149860000Y-74930000D03*
X152400000Y-74930000D03*
X154940000Y-74930000D03*
X157480000Y-74930000D03*
X160020000Y-74930000D03*
%TD*%
D24*
%TO.C,R96*%
X117348000Y-117046000D03*
X117348000Y-118066000D03*
%TD*%
D25*
%TO.C,R78*%
X124434600Y-116110200D03*
X124434600Y-115090200D03*
%TD*%
%TO.C,R90*%
X154914600Y-116110200D03*
X154914600Y-115090200D03*
%TD*%
%TO.C,R74*%
X114274600Y-116110200D03*
X114274600Y-115090200D03*
%TD*%
D26*
%TO.C,C32*%
X143874200Y-88092602D03*
X142914200Y-88092602D03*
%TD*%
D24*
%TO.C,R60*%
X134112000Y-117046000D03*
X134112000Y-118066000D03*
%TD*%
D32*
%TO.C,C42*%
X161394900Y-87408800D03*
X161394900Y-88368800D03*
%TD*%
D26*
%TO.C,C7*%
X145648000Y-80522000D03*
X144688000Y-80522000D03*
%TD*%
D25*
%TO.C,R89*%
X152374600Y-116110200D03*
X152374600Y-115090200D03*
%TD*%
D49*
%TO.C,Y2*%
X162961900Y-87038800D03*
X165161900Y-87038800D03*
X165161900Y-88738800D03*
X162961900Y-88738800D03*
%TD*%
D25*
%TO.C,R6*%
X153277400Y-88247002D03*
X153277400Y-87227002D03*
%TD*%
D27*
%TO.C,R12*%
X165202900Y-85602800D03*
X166222900Y-85602800D03*
%TD*%
D25*
%TO.C,R82*%
X134594600Y-116110200D03*
X134594600Y-115090200D03*
%TD*%
D27*
%TO.C,R93*%
X182189000Y-116530000D03*
X183209000Y-116530000D03*
%TD*%
D35*
%TO.C,C44*%
X178154000Y-82085000D03*
X179114000Y-82085000D03*
%TD*%
%TO.C,C43*%
X178132800Y-83418400D03*
X179092800Y-83418400D03*
%TD*%
D11*
%TO.C,J9*%
X147320000Y-122890000D03*
X149860000Y-122890000D03*
X152400000Y-122890000D03*
X154940000Y-122890000D03*
X157480000Y-122890000D03*
X160020000Y-122890000D03*
%TD*%
D34*
%TO.C,C15*%
X145733600Y-83261402D03*
X145733600Y-82301402D03*
%TD*%
D24*
%TO.C,R101*%
X130048000Y-117046000D03*
X130048000Y-118066000D03*
%TD*%
D25*
%TO.C,R83*%
X137134600Y-116110200D03*
X137134600Y-115090200D03*
%TD*%
%LPD*%
M02*
