M48
; DRILL file KiCad 10.0.2 date 2026-05-11T15:16:24
; FORMAT={-:-/ absolute / inch / decimal}
; #@! TF.CreationDate,2026-05-11T15:16:24-07:00
; #@! TF.GenerationSoftware,Kicad,Pcbnew,10.0.2
; #@! TF.FileFunction,Plated,1,4,PTH
FMAT,2
INCH
; #@! TA.AperFunction,Plated,PTH,ViaDrill
T1C0.0118
; #@! TA.AperFunction,Plated,PTH,ComponentDrill
T2C0.0236
; #@! TA.AperFunction,Plated,PTH,ComponentDrill
T3C0.0350
; #@! TA.AperFunction,Plated,PTH,ComponentDrill
T4C0.0362
; #@! TA.AperFunction,Plated,PTH,ComponentDrill
T5C0.0394
; #@! TA.AperFunction,Plated,PTH,ComponentDrill
T6C0.0402
; #@! TA.AperFunction,Plated,PTH,ComponentDrill
T7C0.0642
; #@! TA.AperFunction,Plated,PTH,ComponentDrill
T8C0.0906
; #@! TA.AperFunction,Plated,PTH,ComponentDrill
T9C0.1000
%
G90
G05
T1
X4.1232Y-4.4042
X4.142Y-3.5362
X4.142Y-3.7242
X4.1452Y-4.7852
X4.1632Y-4.7012
X4.1649Y-4.4678
X4.1712Y-3.8742
X4.217Y-3.6332
X4.23Y-3.8712
X4.2333Y-4.3997
X4.2482Y-4.5992
X4.2692Y-4.6202
X4.28Y-3.8362
X4.2832Y-3.6982
X4.2942Y-3.6332
X4.3431Y-4.5284
X4.3432Y-4.4592
X4.3468Y-4.6286
X4.3562Y-4.4862
X4.3572Y-4.4282
X4.4047Y-3.6714
X4.4052Y-4.3632
X4.409Y-3.7022
X4.4234Y-3.6527
X4.4507Y-3.7012
X4.4602Y-3.7852
X4.4642Y-4.0872
X4.4718Y-2.8155
X4.4892Y-2.8342
X4.5362Y-3.6902
X4.5522Y-3.2952
X4.5798Y-3.2952
X4.5802Y-3.6872
X4.6187Y-3.7852
X4.625Y-3.4322
X4.6262Y-3.6882
X4.644Y-3.4562
X4.6722Y-4.3192
X4.6722Y-4.3532
X4.683Y-3.6662
X4.689Y-3.6912
X4.721Y-4.4512
X4.7512Y-3.5302
X4.7522Y-3.5582
X4.7562Y-3.4932
X4.773Y-4.4102
X4.774Y-4.4472
X4.774Y-4.4912
X4.7795Y-3.5355
X4.8021Y-3.5355
X4.826Y-4.2922
X4.826Y-4.4512
X4.889Y-3.5982
X4.8944Y-3.5338
X4.896Y-3.5715
X4.8962Y-3.4726
X4.9102Y-3.6522
X4.9171Y-3.5404
X4.9242Y-3.4982
X4.926Y-4.4292
X4.929Y-4.4012
X4.939Y-4.8222
X4.9629Y-3.679
X4.9682Y-3.5092
X4.9792Y-3.4812
X4.9992Y-3.5742
X5.0065Y-3.6357
X5.021Y-3.6612
X5.03Y-4.2842
X5.0548Y-4.274
X5.0712Y-3.3942
X5.0712Y-3.5072
X5.1262Y-3.5092
X5.1282Y-3.3972
X5.149Y-3.6442
X5.151Y-4.2772
X5.1717Y-4.5645
X5.172Y-4.4092
X5.216Y-4.8362
X5.223Y-4.4732
X5.2239Y-3.5145
X5.2252Y-3.3982
X5.2252Y-3.5562
X5.2264Y-3.4423
X5.2317Y-3.4759
X5.2417Y-3.4934
X5.249Y-4.2782
X5.2496Y-3.0849
X5.2555Y-3.5328
X5.258Y-4.8362
X5.2732Y-4.4042
X5.2739Y-3.5985
X5.275Y-4.4482
X5.2835Y-3.2012
X5.2892Y-3.4052
X5.2984Y-3.5985
X5.299Y-4.8372
X5.3013Y-3.0923
X5.3165Y-3.5202
X5.33Y-4.4482
X5.344Y-3.9892
X5.345Y-3.076
X5.3474Y-3.5697
X5.3495Y-3.1442
X5.354Y-4.2782
X5.369Y-3.1122
X5.3733Y-3.0709
X5.3745Y-3.2162
X5.3745Y-3.2422
X5.3745Y-3.2682
X5.3745Y-3.2942
X5.3745Y-3.3202
X5.3745Y-3.3462
X5.3745Y-3.3722
X5.376Y-4.4492
X5.3765Y-3.4122
X5.3781Y-3.4984
X5.3885Y-3.3942
X5.4085Y-3.5042
X5.412Y-3.0772
X5.4141Y-3.1763
X5.4145Y-3.3942
X5.426Y-4.4482
X5.4427Y-3.1123
X5.4471Y-3.5043
X5.45Y-4.2742
X5.4515Y-3.0882
X5.454Y-3.6192
X5.4665Y-3.2882
X5.472Y-4.0882
X5.476Y-4.4492
X5.4829Y-3.5806
X5.4865Y-3.1962
X5.4865Y-3.2222
X5.4865Y-3.2482
X5.4865Y-3.2682
X5.4865Y-3.2882
X5.4865Y-3.3092
X5.4974Y-3.6538
X5.5125Y-3.2882
X5.5385Y-3.2882
X5.5395Y-3.1771
X5.5405Y-3.3942
X5.548Y-4.2752
X5.5499Y-3.5602
X5.5554Y-3.5045
X5.5587Y-3.6477
X5.5645Y-3.2882
X5.5665Y-3.3942
X5.5717Y-3.5946
X5.576Y-4.1872
X5.587Y-3.506
X5.5901Y-3.4769
X5.5905Y-3.2102
X5.5905Y-3.2362
X5.5905Y-3.2622
X5.5905Y-3.2882
X5.5905Y-3.3982
X5.5905Y-3.4282
X5.5905Y-3.4542
X5.5915Y-3.3122
X5.5996Y-3.1723
X5.6165Y-3.2862
X5.618Y-3.6422
X5.6279Y-3.5037
X5.6382Y-3.5686
X5.6405Y-3.2862
X5.65Y-4.2752
X5.6645Y-3.2882
X5.669Y-3.6452
X5.6795Y-3.5592
X5.6887Y-3.5025
X5.6975Y-3.3946
X5.6999Y-3.2805
X5.7005Y-3.4592
X5.7006Y-3.4832
X5.7008Y-3.333
X5.701Y-3.3072
X5.7022Y-3.3618
X5.703Y-3.2462
X5.7036Y-3.2002
X5.71Y-3.6372
X5.7175Y-3.5967
X5.75Y-4.2742
X5.7507Y-3.1474
X5.7627Y-3.5502
X5.7647Y-3.2765
X5.7732Y-3.5281
X5.793Y-3.6402
X5.7965Y-3.1947
X5.7977Y-3.2459
X5.8017Y-3.3764
X5.803Y-3.2712
X5.8165Y-3.1947
X5.8178Y-3.6208
X5.8183Y-3.3594
X5.8225Y-3.2459
X5.828Y-3.1561
X5.8319Y-3.1794
X5.836Y-3.6103
X5.8385Y-3.6392
X5.8421Y-3.1283
X5.8426Y-3.3512
X5.8445Y-3.2722
X5.8463Y-3.4723
X5.847Y-3.3162
X5.848Y-4.2782
X5.8545Y-3.1722
X5.8695Y-3.2722
X5.875Y-3.3252
X5.8795Y-3.1722
X5.8895Y-3.2722
X5.9045Y-3.1722
X5.9095Y-3.2722
X5.9095Y-3.2922
X5.9222Y-3.6422
X5.9245Y-3.1422
X5.9245Y-3.1622
X5.9245Y-3.1822
X5.9245Y-3.3072
X5.925Y-3.5832
X5.9272Y-3.4405
X5.9283Y-3.6119
X5.9322Y-3.3264
X5.9345Y-3.3472
X5.9395Y-3.1272
X5.951Y-4.2732
X5.9545Y-3.3472
X5.9595Y-3.1272
X5.97Y-4.4502
X5.9795Y-3.1272
X5.9795Y-3.3475
X5.9995Y-3.1272
X6.0035Y-3.3482
X6.0082Y-3.4482
X6.0195Y-3.1322
X6.0195Y-3.1522
X6.0195Y-3.1722
X6.0195Y-3.1922
X6.0195Y-3.2122
X6.0195Y-3.2322
X6.0196Y-3.3333
X6.024Y-3.6112
X6.0245Y-3.2942
X6.0245Y-3.3142
X6.0246Y-3.2532
X6.0252Y-3.2742
X6.0284Y-3.5186
X6.0366Y-3.4823
X6.0402Y-3.3674
X6.049Y-4.2712
X6.0711Y-3.46
X6.077Y-4.4712
X6.0961Y-3.318
X6.0982Y-3.5992
X6.0987Y-3.6323
X6.1106Y-3.5718
X6.1151Y-3.2661
X6.126Y-4.4342
X6.1371Y-3.202
X6.1506Y-4.2724
X6.1564Y-3.5395
X6.1968Y-3.5257
X6.2388Y-3.535
X6.2412Y-4.4522
X6.2456Y-3.379
X6.249Y-3.2072
X6.249Y-4.2722
X6.2598Y-3.4003
X6.265Y-4.3992
X6.27Y-3.1932
X6.2721Y-3.321
X6.2795Y-3.5235
X6.2853Y-3.2609
X6.2921Y-3.2306
X6.2958Y-3.3272
X6.2962Y-4.4652
X6.297Y-4.4012
X6.305Y-3.5211
X6.321Y-4.4012
X6.3219Y-3.5454
X6.327Y-3.1714
X6.3272Y-3.4765
X6.334Y-3.5662
X6.3384Y-3.4984
X6.3438Y-3.1511
X6.346Y-3.0602
X6.3556Y-3.4082
X6.363Y-3.3652
X6.3682Y-4.4742
X6.3779Y-3.1333
X6.3825Y-3.2085
X6.3972Y-3.5332
X6.4058Y-3.2089
X6.406Y-3.6332
X6.4117Y-3.2552
X6.415Y-3.3682
X6.4186Y-3.149
X6.424Y-4.3182
X6.4249Y-4.4731
X6.4451Y-3.5739
X6.4551Y-3.1215
X6.4582Y-3.2676
X6.4589Y-3.2081
X6.4602Y-3.5282
X6.473Y-4.5772
X6.491Y-3.1152
X6.496Y-3.6392
X6.5022Y-3.5342
X6.519Y-3.1662
X6.522Y-4.1472
X6.5286Y-3.3171
X6.53Y-3.5739
X6.5362Y-3.5342
X6.5543Y-3.2617
X6.555Y-3.1122
X6.555Y-3.4052
X6.5552Y-3.5152
X6.5635Y-3.5739
X6.575Y-4.1702
X6.7262Y-2.9672
X6.7412Y-3.0992
X6.7502Y-3.3172
X6.7512Y-3.3672
X6.7562Y-3.2112
X6.7572Y-3.1552
X6.7592Y-3.4432
X6.7982Y-3.2112
X6.8022Y-3.1602
X6.8203Y-3.9049
X6.8397Y-3.8854
X6.987Y-4.0322
X6.9877Y-3.8215
X7.0072Y-3.1062
X7.0704Y-3.9298
X7.0721Y-3.9711
X7.1102Y-3.0812
X7.1352Y-3.3182
X7.137Y-2.7672
X7.138Y-4.3362
X7.149Y-3.2192
X7.1522Y-3.4322
X7.2052Y-3.1482
T3
X6.7Y-3.0434
X6.7Y-3.1434
X6.7Y-3.2434
X6.7Y-3.3434
X6.7Y-3.4434
X6.8Y-2.9934
X6.8Y-3.0934
X6.8Y-3.2934
X6.8Y-3.3934
T4
X4.2821Y-3.0482
X4.2821Y-3.1466
X4.2821Y-3.2254
X4.2821Y-3.3238
X4.3852Y-3.0482
X4.3852Y-3.1466
X4.3852Y-3.2254
X4.3852Y-3.3238
T5
X4.1502Y-3.9382
X4.1502Y-4.0382
X4.1502Y-4.1382
X4.1502Y-4.2382
X4.2502Y-3.9382
X4.2502Y-4.0382
X4.2502Y-4.1382
X4.2502Y-4.2382
X4.4Y-4.7382
X4.4002Y-4.9882
X4.5Y-4.7382
X4.5002Y-3.7382
X4.5002Y-3.8382
X4.5002Y-3.9382
X4.5002Y-4.0382
X4.5002Y-4.1382
X4.5002Y-4.2382
X4.5002Y-4.9882
X4.55Y-2.95
X4.55Y-3.1132
X4.55Y-3.2132
X4.6Y-4.7382
X4.6002Y-3.7382
X4.6002Y-3.8382
X4.6002Y-3.9382
X4.6002Y-4.0382
X4.6002Y-4.1382
X4.6002Y-4.2382
X4.6002Y-4.9882
X4.65Y-2.95
X4.65Y-3.1132
X4.65Y-3.2132
X4.7Y-4.7382
X4.7002Y-3.7382
X4.7002Y-3.8382
X4.7002Y-3.9382
X4.7002Y-4.0382
X4.7002Y-4.1382
X4.7002Y-4.2382
X4.7002Y-4.9882
X4.75Y-2.95
X4.75Y-3.1132
X4.75Y-3.2132
X4.8Y-4.7382
X4.8002Y-3.7382
X4.8002Y-3.8382
X4.8002Y-3.9382
X4.8002Y-4.0382
X4.8002Y-4.1382
X4.8002Y-4.2382
X4.8002Y-4.9882
X4.85Y-2.95
X4.85Y-3.1132
X4.85Y-3.2132
X4.9Y-4.7382
X4.9002Y-3.7382
X4.9002Y-3.8382
X4.9002Y-3.9382
X4.9002Y-4.0382
X4.9002Y-4.1382
X4.9002Y-4.2382
X4.9002Y-4.9882
X4.95Y-2.95
X4.95Y-3.1132
X4.95Y-3.2132
X4.9998Y-4.8382
X5.0Y-4.7382
X5.0002Y-3.7382
X5.0002Y-3.8382
X5.0002Y-3.9382
X5.0002Y-4.0382
X5.0002Y-4.1382
X5.0002Y-4.2382
X5.05Y-2.95
X5.0998Y-4.8382
X5.1Y-4.7382
X5.1002Y-3.7382
X5.1002Y-3.8382
X5.1002Y-3.9382
X5.1002Y-4.0382
X5.1002Y-4.1382
X5.1002Y-4.2382
X5.15Y-2.95
X5.2Y-4.7382
X5.2002Y-3.7382
X5.2002Y-3.8382
X5.2002Y-3.9382
X5.2002Y-4.0382
X5.2002Y-4.1382
X5.2002Y-4.2382
X5.25Y-2.95
X5.3Y-4.7382
X5.3002Y-3.7382
X5.3002Y-3.8382
X5.3002Y-3.9382
X5.3002Y-4.0382
X5.3002Y-4.1382
X5.3002Y-4.2382
X5.35Y-2.95
X5.4Y-4.7382
X5.4002Y-3.7382
X5.4002Y-3.8382
X5.4002Y-3.9382
X5.4002Y-4.0382
X5.4002Y-4.1382
X5.4002Y-4.2382
X5.45Y-2.95
X5.5Y-4.7382
X5.5002Y-3.7382
X5.5002Y-3.8382
X5.5002Y-3.9382
X5.5002Y-4.0382
X5.5002Y-4.1382
X5.5002Y-4.2382
X5.6Y-2.95
X5.6Y-4.7382
X5.6002Y-3.7382
X5.6002Y-3.8382
X5.6002Y-3.9382
X5.6002Y-4.0382
X5.6002Y-4.1382
X5.6002Y-4.2382
X5.7Y-2.95
X5.7Y-4.7382
X5.7002Y-3.7382
X5.7002Y-3.8382
X5.7002Y-3.9382
X5.7002Y-4.0382
X5.7002Y-4.1382
X5.7002Y-4.2382
X5.8Y-2.95
X5.8Y-4.7382
X5.8Y-4.8382
X5.8002Y-3.7382
X5.8002Y-3.8382
X5.8002Y-3.9382
X5.8002Y-4.0382
X5.8002Y-4.1382
X5.8002Y-4.2382
X5.9Y-2.95
X5.9Y-4.7382
X5.9Y-4.8382
X5.9002Y-3.7382
X5.9002Y-3.8382
X5.9002Y-3.9382
X5.9002Y-4.0382
X5.9002Y-4.1382
X5.9002Y-4.2382
X6.0Y-2.95
X6.0Y-4.7382
X6.0Y-4.8382
X6.0002Y-3.7382
X6.0002Y-3.8382
X6.0002Y-3.9382
X6.0002Y-4.0382
X6.0002Y-4.1382
X6.0002Y-4.2382
X6.1Y-2.95
X6.1Y-4.7382
X6.1Y-4.8382
X6.1002Y-3.7382
X6.1002Y-3.8382
X6.1002Y-3.9382
X6.1002Y-4.0382
X6.1002Y-4.1382
X6.1002Y-4.2382
X6.2Y-2.95
X6.2Y-4.7382
X6.2Y-4.8382
X6.2002Y-3.7382
X6.2002Y-3.8382
X6.2002Y-3.9382
X6.2002Y-4.0382
X6.2002Y-4.1382
X6.2002Y-4.2382
X6.3Y-2.95
X6.3Y-4.7382
X6.3Y-4.8382
X6.3002Y-3.7382
X6.3002Y-3.8382
X6.3002Y-3.9382
X6.3002Y-4.0382
X6.3002Y-4.1382
X6.3002Y-4.2382
X6.45Y-4.9882
X6.5Y-3.8882
X6.5Y-3.9882
X6.55Y-4.9882
X6.6Y-3.8882
X6.6Y-3.9882
X6.65Y-4.9882
X6.742Y-3.8894
X6.742Y-3.9894
X6.75Y-4.9882
X6.89Y-4.2832
X6.89Y-4.3832
T6
X7.2106Y-2.9574
X7.2106Y-3.0574
X7.2106Y-3.379
X7.2106Y-3.479
T7
X6.9299Y-2.9133
X6.9299Y-3.5231
T8
X4.1754Y-2.9273
X4.1754Y-3.4446
X4.399Y-2.9273
X4.399Y-3.4446
T9
X4.2Y-2.7382
X4.2Y-4.9382
X7.0Y-2.7382
X7.0Y-4.9382
T2
G00X7.0351Y-3.7681
M15
G01X7.0784Y-3.7681
M16
G05
G00X7.0351Y-4.1083
M15
G01X7.0784Y-4.1083
M16
G05
G00X7.2056Y-3.7681
M15
G01X7.2371Y-3.7681
M16
G05
G00X7.2056Y-4.1083
M15
G01X7.2371Y-4.1083
M16
G05
T5
G00X6.9438Y-4.6803
M15
G01X6.9438Y-4.6015
M16
G05
G00X7.1013Y-4.4558
M15
G01X7.0225Y-4.4558
M16
G05
G00X7.18Y-4.6803
M15
G01X7.18Y-4.6015
M16
G05
M30
