%TF.GenerationSoftware,KiCad,Pcbnew,10.0.3*%
%TF.CreationDate,2026-06-09T16:28:04-07:00*%
%TF.ProjectId,p4hil,70346869-6c2e-46b6-9963-61645f706362,rev?*%
%TF.SameCoordinates,Original*%
%TF.FileFunction,Paste,Bot*%
%TF.FilePolarity,Positive*%
%FSLAX46Y46*%
G04 Gerber Fmt 4.6, Leading zero omitted, Abs format (unit mm)*
G04 Created by KiCad (PCBNEW 10.0.3) date 2026-06-09 16:28:04*
%MOMM*%
%LPD*%
G01*
G04 APERTURE LIST*
G04 Aperture macros list*
%AMRoundRect*
0 Rectangle with rounded corners*
0 $1 Rounding radius*
0 $2 $3 $4 $5 $6 $7 $8 $9 X,Y pos of 4 corners*
0 Add a 4 corners polygon primitive as box body*
4,1,4,$2,$3,$4,$5,$6,$7,$8,$9,$2,$3,0*
0 Add four circle primitives for the rounded corners*
1,1,$1+$1,$2,$3*
1,1,$1+$1,$4,$5*
1,1,$1+$1,$6,$7*
1,1,$1+$1,$8,$9*
0 Add four rect primitives between the rounded corners*
20,1,$1+$1,$2,$3,$4,$5,0*
20,1,$1+$1,$4,$5,$6,$7,0*
20,1,$1+$1,$6,$7,$8,$9,0*
20,1,$1+$1,$8,$9,$2,$3,0*%
%AMFreePoly0*
4,1,14,0.385355,0.085355,0.400000,0.050000,0.400000,0.020711,0.385355,-0.014644,0.314644,-0.085355,0.279289,-0.100000,-0.350000,-0.100000,-0.385355,-0.085355,-0.400000,-0.050000,-0.400000,0.050000,-0.385355,0.085355,-0.350000,0.100000,0.350000,0.100000,0.385355,0.085355,0.385355,0.085355,$1*%
%AMFreePoly1*
4,1,14,0.314644,0.085355,0.385355,0.014644,0.400000,-0.020711,0.400000,-0.050000,0.385355,-0.085355,0.350000,-0.100000,-0.350000,-0.100000,-0.385355,-0.085355,-0.400000,-0.050000,-0.400000,0.050000,-0.385355,0.085355,-0.350000,0.100000,0.279289,0.100000,0.314644,0.085355,0.314644,0.085355,$1*%
%AMFreePoly2*
4,1,14,0.085355,0.385355,0.100000,0.350000,0.100000,-0.350000,0.085355,-0.385355,0.050000,-0.400000,0.020711,-0.400000,-0.014644,-0.385355,-0.085355,-0.314644,-0.100000,-0.279289,-0.100000,0.350000,-0.085355,0.385355,-0.050000,0.400000,0.050000,0.400000,0.085355,0.385355,0.085355,0.385355,$1*%
%AMFreePoly3*
4,1,14,0.085355,0.385355,0.100000,0.350000,0.100000,-0.279289,0.085355,-0.314644,0.014644,-0.385355,-0.020711,-0.400000,-0.050000,-0.400000,-0.085355,-0.385355,-0.100000,-0.350000,-0.100000,0.350000,-0.085355,0.385355,-0.050000,0.400000,0.050000,0.400000,0.085355,0.385355,0.085355,0.385355,$1*%
%AMFreePoly4*
4,1,14,0.385355,0.085355,0.400000,0.050000,0.400000,-0.050000,0.385355,-0.085355,0.350000,-0.100000,-0.350000,-0.100000,-0.385355,-0.085355,-0.400000,-0.050000,-0.400000,-0.020711,-0.385355,0.014644,-0.314644,0.085355,-0.279289,0.100000,0.350000,0.100000,0.385355,0.085355,0.385355,0.085355,$1*%
%AMFreePoly5*
4,1,14,0.385355,0.085355,0.400000,0.050000,0.400000,-0.050000,0.385355,-0.085355,0.350000,-0.100000,-0.279289,-0.100000,-0.314644,-0.085355,-0.385355,-0.014644,-0.400000,0.020711,-0.400000,0.050000,-0.385355,0.085355,-0.350000,0.100000,0.350000,0.100000,0.385355,0.085355,0.385355,0.085355,$1*%
%AMFreePoly6*
4,1,14,0.014644,0.385355,0.085355,0.314644,0.100000,0.279289,0.100000,-0.350000,0.085355,-0.385355,0.050000,-0.400000,-0.050000,-0.400000,-0.085355,-0.385355,-0.100000,-0.350000,-0.100000,0.350000,-0.085355,0.385355,-0.050000,0.400000,-0.020711,0.400000,0.014644,0.385355,0.014644,0.385355,$1*%
%AMFreePoly7*
4,1,14,0.085355,0.385355,0.100000,0.350000,0.100000,-0.350000,0.085355,-0.385355,0.050000,-0.400000,-0.050000,-0.400000,-0.085355,-0.385355,-0.100000,-0.350000,-0.100000,0.279289,-0.085355,0.314644,-0.014644,0.385355,0.020711,0.400000,0.050000,0.400000,0.085355,0.385355,0.085355,0.385355,$1*%
G04 Aperture macros list end*
%ADD10RoundRect,0.135000X-0.185000X0.135000X-0.185000X-0.135000X0.185000X-0.135000X0.185000X0.135000X0*%
%ADD11RoundRect,0.135000X0.185000X-0.135000X0.185000X0.135000X-0.185000X0.135000X-0.185000X-0.135000X0*%
%ADD12RoundRect,0.140000X0.140000X0.170000X-0.140000X0.170000X-0.140000X-0.170000X0.140000X-0.170000X0*%
%ADD13RoundRect,0.135000X-0.135000X-0.185000X0.135000X-0.185000X0.135000X0.185000X-0.135000X0.185000X0*%
%ADD14RoundRect,0.165000X-0.165000X-0.165000X0.165000X-0.165000X0.165000X0.165000X-0.165000X0.165000X0*%
%ADD15RoundRect,0.062500X-0.325000X-0.062500X0.325000X-0.062500X0.325000X0.062500X-0.325000X0.062500X0*%
%ADD16RoundRect,0.062500X-0.062500X-0.325000X0.062500X-0.325000X0.062500X0.325000X-0.062500X0.325000X0*%
%ADD17RoundRect,0.225000X0.250000X-0.225000X0.250000X0.225000X-0.250000X0.225000X-0.250000X-0.225000X0*%
%ADD18RoundRect,0.140000X-0.170000X0.140000X-0.170000X-0.140000X0.170000X-0.140000X0.170000X0.140000X0*%
%ADD19RoundRect,0.225000X0.225000X0.250000X-0.225000X0.250000X-0.225000X-0.250000X0.225000X-0.250000X0*%
%ADD20RoundRect,0.140000X0.170000X-0.140000X0.170000X0.140000X-0.170000X0.140000X-0.170000X-0.140000X0*%
%ADD21RoundRect,0.140000X-0.140000X-0.170000X0.140000X-0.170000X0.140000X0.170000X-0.140000X0.170000X0*%
%ADD22RoundRect,0.225000X-0.250000X0.225000X-0.250000X-0.225000X0.250000X-0.225000X0.250000X0.225000X0*%
%ADD23RoundRect,0.135000X0.135000X0.185000X-0.135000X0.185000X-0.135000X-0.185000X0.135000X-0.185000X0*%
%ADD24RoundRect,0.250000X0.285000X-0.285000X0.285000X0.285000X-0.285000X0.285000X-0.285000X-0.285000X0*%
%ADD25FreePoly0,90.000000*%
%ADD26RoundRect,0.050000X0.050000X-0.350000X0.050000X0.350000X-0.050000X0.350000X-0.050000X-0.350000X0*%
%ADD27FreePoly1,90.000000*%
%ADD28FreePoly2,90.000000*%
%ADD29RoundRect,0.050000X0.350000X-0.050000X0.350000X0.050000X-0.350000X0.050000X-0.350000X-0.050000X0*%
%ADD30FreePoly3,90.000000*%
%ADD31FreePoly4,90.000000*%
%ADD32FreePoly5,90.000000*%
%ADD33FreePoly6,90.000000*%
%ADD34FreePoly7,90.000000*%
%ADD35RoundRect,0.250000X-0.450000X-0.350000X0.450000X-0.350000X0.450000X0.350000X-0.450000X0.350000X0*%
G04 APERTURE END LIST*
D10*
%TO.C,R105*%
X140244750Y-117046000D03*
X140244750Y-118066000D03*
%TD*%
D11*
%TO.C,R84*%
X139674600Y-116110200D03*
X139674600Y-115090200D03*
%TD*%
D10*
%TO.C,R62*%
X139192000Y-117046000D03*
X139192000Y-118066000D03*
%TD*%
%TO.C,R58*%
X129000250Y-117046000D03*
X129000250Y-118066000D03*
%TD*%
D12*
%TO.C,C13*%
X133570800Y-82241200D03*
X132610800Y-82241200D03*
%TD*%
D10*
%TO.C,R52*%
X113665000Y-117046000D03*
X113665000Y-118066000D03*
%TD*%
%TO.C,R32*%
X163426900Y-77599800D03*
X163426900Y-78619800D03*
%TD*%
D13*
%TO.C,R11*%
X166345900Y-80014800D03*
X167365900Y-80014800D03*
%TD*%
D10*
%TO.C,R51*%
X111252000Y-117046000D03*
X111252000Y-118066000D03*
%TD*%
D14*
%TO.C,U5*%
X115012000Y-123928000D03*
X115012000Y-124748001D03*
X115012000Y-125568000D03*
X115831999Y-123928000D03*
X115832000Y-124748000D03*
X115832001Y-125568000D03*
X116652000Y-123928000D03*
X116652000Y-124747999D03*
X116652000Y-125568000D03*
D15*
X113844500Y-125998000D03*
X113844500Y-125498000D03*
X113844500Y-124998000D03*
X113844500Y-124498000D03*
X113844500Y-123997999D03*
X113844500Y-123498000D03*
D16*
X114582000Y-122760500D03*
X115082000Y-122760500D03*
X115582000Y-122760500D03*
X116082000Y-122760500D03*
X116582001Y-122760500D03*
X117082000Y-122760500D03*
D15*
X117819500Y-123498000D03*
X117819500Y-123998000D03*
X117819500Y-124498000D03*
X117819500Y-124998000D03*
X117819500Y-125498001D03*
X117819500Y-125998000D03*
D16*
X117082000Y-126735500D03*
X116582000Y-126735500D03*
X116082000Y-126735500D03*
X115582000Y-126735500D03*
X115081999Y-126735500D03*
X114582000Y-126735500D03*
%TD*%
D11*
%TO.C,R85*%
X142214600Y-116110200D03*
X142214600Y-115090200D03*
%TD*%
D10*
%TO.C,R108*%
X147849000Y-117046000D03*
X147849000Y-118066000D03*
%TD*%
D17*
%TO.C,C1*%
X143244400Y-80346200D03*
X143244400Y-78796200D03*
%TD*%
D10*
%TO.C,R7*%
X135653600Y-90011600D03*
X135653600Y-91031600D03*
%TD*%
D11*
%TO.C,R87*%
X147294600Y-116110200D03*
X147294600Y-115090200D03*
%TD*%
D12*
%TO.C,C22*%
X143874200Y-87076602D03*
X142914200Y-87076602D03*
%TD*%
D18*
%TO.C,C29*%
X143244400Y-91397200D03*
X143244400Y-92357200D03*
%TD*%
%TO.C,C26*%
X136669600Y-90912002D03*
X136669600Y-91872002D03*
%TD*%
D11*
%TO.C,R79*%
X126974600Y-116110200D03*
X126974600Y-115090200D03*
%TD*%
D10*
%TO.C,R111*%
X155453250Y-117046000D03*
X155453250Y-118066000D03*
%TD*%
D11*
%TO.C,R76*%
X119354600Y-116110200D03*
X119354600Y-115090200D03*
%TD*%
D19*
%TO.C,C46*%
X123330000Y-88854000D03*
X121780000Y-88854000D03*
%TD*%
%TO.C,C24*%
X143994000Y-85781202D03*
X142444000Y-85781202D03*
%TD*%
D18*
%TO.C,C31*%
X139688400Y-91298200D03*
X139688400Y-92258200D03*
%TD*%
%TO.C,C4*%
X139942400Y-80018000D03*
X139942400Y-80978000D03*
%TD*%
%TO.C,C5*%
X136742000Y-80018000D03*
X136742000Y-80978000D03*
%TD*%
D20*
%TO.C,C16*%
X145759000Y-85372202D03*
X145759000Y-84412202D03*
%TD*%
D21*
%TO.C,C17*%
X146856400Y-87229002D03*
X147816400Y-87229002D03*
%TD*%
D11*
%TO.C,R2*%
X145530400Y-79486002D03*
X145530400Y-78466002D03*
%TD*%
D12*
%TO.C,C48*%
X123543000Y-90124000D03*
X122583000Y-90124000D03*
%TD*%
D10*
%TO.C,R55*%
X121412000Y-117046000D03*
X121412000Y-118066000D03*
%TD*%
D22*
%TO.C,C2*%
X138037400Y-79926200D03*
X138037400Y-81476200D03*
%TD*%
D10*
%TO.C,R95*%
X114712500Y-117046000D03*
X114712500Y-118066000D03*
%TD*%
D21*
%TO.C,C6*%
X134512000Y-83698400D03*
X135472000Y-83698400D03*
%TD*%
D23*
%TO.C,R17*%
X183209000Y-123170000D03*
X182189000Y-123170000D03*
%TD*%
D11*
%TO.C,R88*%
X149834600Y-116110200D03*
X149834600Y-115090200D03*
%TD*%
%TO.C,R24*%
X140817600Y-92031000D03*
X140817600Y-91011000D03*
%TD*%
D10*
%TO.C,R97*%
X119888000Y-117046000D03*
X119888000Y-118066000D03*
%TD*%
D23*
%TO.C,R18*%
X183209000Y-119850000D03*
X182189000Y-119850000D03*
%TD*%
%TO.C,R33*%
X183517000Y-81665800D03*
X182497000Y-81665800D03*
%TD*%
D10*
%TO.C,R69*%
X156965857Y-117046000D03*
X156965857Y-118066000D03*
%TD*%
D13*
%TO.C,R73*%
X182195000Y-118190000D03*
X183215000Y-118190000D03*
%TD*%
D10*
%TO.C,R64*%
X144235143Y-117046000D03*
X144235143Y-118066000D03*
%TD*%
%TO.C,R109*%
X150383750Y-117046000D03*
X150383750Y-118066000D03*
%TD*%
%TO.C,R68*%
X154419714Y-117046000D03*
X154419714Y-118066000D03*
%TD*%
%TO.C,R56*%
X123952000Y-117046000D03*
X123952000Y-118066000D03*
%TD*%
%TO.C,R98*%
X122428000Y-117046000D03*
X122428000Y-118066000D03*
%TD*%
%TO.C,R100*%
X127508000Y-117046000D03*
X127508000Y-118066000D03*
%TD*%
D14*
%TO.C,U12*%
X133702000Y-123928000D03*
X133702000Y-124748000D03*
X133702000Y-125568000D03*
X134522000Y-123928000D03*
X134522000Y-124748000D03*
X134522000Y-125568000D03*
X135342000Y-123928000D03*
X135342000Y-124748000D03*
X135342000Y-125568000D03*
D15*
X132534500Y-125998000D03*
X132534500Y-125498000D03*
X132534500Y-124998000D03*
X132534500Y-124498000D03*
X132534500Y-123998000D03*
X132534500Y-123498000D03*
D16*
X133272000Y-122760500D03*
X133772000Y-122760500D03*
X134272000Y-122760500D03*
X134772000Y-122760500D03*
X135272000Y-122760500D03*
X135772000Y-122760500D03*
D15*
X136509500Y-123498000D03*
X136509500Y-123998000D03*
X136509500Y-124498000D03*
X136509500Y-124998000D03*
X136509500Y-125498000D03*
X136509500Y-125998000D03*
D16*
X135772000Y-126735500D03*
X135272000Y-126735500D03*
X134772000Y-126735500D03*
X134272000Y-126735500D03*
X133772000Y-126735500D03*
X133272000Y-126735500D03*
%TD*%
D18*
%TO.C,C27*%
X138672400Y-90508200D03*
X138672400Y-91468200D03*
%TD*%
D11*
%TO.C,R80*%
X129514600Y-116110200D03*
X129514600Y-115090200D03*
%TD*%
D10*
%TO.C,R61*%
X136652000Y-117046000D03*
X136652000Y-118066000D03*
%TD*%
D19*
%TO.C,C47*%
X123330000Y-91394000D03*
X121780000Y-91394000D03*
%TD*%
D20*
%TO.C,C20*%
X138767400Y-88186200D03*
X138767400Y-87226200D03*
%TD*%
D10*
%TO.C,R65*%
X146781286Y-117046000D03*
X146781286Y-118066000D03*
%TD*%
D11*
%TO.C,R77*%
X121894600Y-116110200D03*
X121894600Y-115090200D03*
%TD*%
D10*
%TO.C,R53*%
X116332000Y-117046000D03*
X116332000Y-118066000D03*
%TD*%
%TO.C,R1*%
X133520000Y-78429200D03*
X133520000Y-79449200D03*
%TD*%
D18*
%TO.C,C23*%
X137656400Y-90508200D03*
X137656400Y-91468200D03*
%TD*%
D10*
%TO.C,R110*%
X152918500Y-117046000D03*
X152918500Y-118066000D03*
%TD*%
D12*
%TO.C,C11*%
X133565600Y-81225200D03*
X132605600Y-81225200D03*
%TD*%
D10*
%TO.C,R107*%
X145314250Y-117046000D03*
X145314250Y-118066000D03*
%TD*%
D20*
%TO.C,C41*%
X166728900Y-88368800D03*
X166728900Y-87408800D03*
%TD*%
D11*
%TO.C,R92*%
X160020000Y-110954000D03*
X160020000Y-109934000D03*
%TD*%
D23*
%TO.C,R16*%
X183209000Y-126490000D03*
X182189000Y-126490000D03*
%TD*%
D10*
%TO.C,R113*%
X160522750Y-117046000D03*
X160522750Y-118066000D03*
%TD*%
%TO.C,R54*%
X118872000Y-117046000D03*
X118872000Y-118066000D03*
%TD*%
D17*
%TO.C,C8*%
X146927400Y-80117002D03*
X146927400Y-78567002D03*
%TD*%
D23*
%TO.C,R5*%
X152132000Y-87201502D03*
X151112000Y-87201502D03*
%TD*%
D12*
%TO.C,C9*%
X143851400Y-81539402D03*
X142891400Y-81539402D03*
%TD*%
%TO.C,C10*%
X143851400Y-82530002D03*
X142891400Y-82530002D03*
%TD*%
D10*
%TO.C,R66*%
X149327429Y-117046000D03*
X149327429Y-118066000D03*
%TD*%
D20*
%TO.C,C19*%
X137767400Y-88166200D03*
X137767400Y-87206200D03*
%TD*%
D10*
%TO.C,R63*%
X141689000Y-117046000D03*
X141689000Y-118066000D03*
%TD*%
D23*
%TO.C,R34*%
X181918800Y-72572600D03*
X180898800Y-72572600D03*
%TD*%
D10*
%TO.C,R13*%
X162410900Y-77599800D03*
X162410900Y-78619800D03*
%TD*%
D13*
%TO.C,R114*%
X182189000Y-114870000D03*
X183209000Y-114870000D03*
%TD*%
D10*
%TO.C,R70*%
X159512000Y-117046000D03*
X159512000Y-118066000D03*
%TD*%
D11*
%TO.C,R75*%
X116814600Y-116110200D03*
X116814600Y-115090200D03*
%TD*%
D10*
%TO.C,R103*%
X135128000Y-117046000D03*
X135128000Y-118066000D03*
%TD*%
D21*
%TO.C,C30*%
X151162800Y-88217502D03*
X152122800Y-88217502D03*
%TD*%
D10*
%TO.C,R106*%
X142779500Y-117046000D03*
X142779500Y-118066000D03*
%TD*%
D24*
%TO.C,U4*%
X162198400Y-83341800D03*
X163518400Y-83341800D03*
X162198400Y-82021800D03*
X163518400Y-82021800D03*
D25*
X164258400Y-84631800D03*
D26*
X163858400Y-84631800D03*
X163458400Y-84631800D03*
X163058400Y-84631800D03*
X162658400Y-84631800D03*
X162258400Y-84631800D03*
X161858400Y-84631800D03*
D27*
X161458400Y-84631800D03*
D28*
X160908400Y-84081800D03*
D29*
X160908400Y-83681800D03*
X160908400Y-83281800D03*
X160908400Y-82881800D03*
X160908400Y-82481800D03*
X160908400Y-82081800D03*
X160908400Y-81681800D03*
D30*
X160908400Y-81281800D03*
D31*
X161458400Y-80731800D03*
D26*
X161858400Y-80731800D03*
X162258400Y-80731800D03*
X162658400Y-80731800D03*
X163058400Y-80731800D03*
X163458400Y-80731800D03*
X163858400Y-80731800D03*
D32*
X164258400Y-80731800D03*
D33*
X164808400Y-81281800D03*
D29*
X164808400Y-81681800D03*
X164808400Y-82081800D03*
X164808400Y-82481800D03*
X164808400Y-82881800D03*
X164808400Y-83281800D03*
X164808400Y-83681800D03*
D34*
X164808400Y-84081800D03*
%TD*%
D11*
%TO.C,R86*%
X144754600Y-116110200D03*
X144754600Y-115090200D03*
%TD*%
D10*
%TO.C,R112*%
X157988000Y-117046000D03*
X157988000Y-118066000D03*
%TD*%
%TO.C,R57*%
X126492000Y-117046000D03*
X126492000Y-118066000D03*
%TD*%
%TO.C,R99*%
X124968000Y-117046000D03*
X124968000Y-118066000D03*
%TD*%
D14*
%TO.C,U11*%
X165372000Y-123928000D03*
X165372000Y-124748000D03*
X165372000Y-125568000D03*
X166192000Y-123928000D03*
X166192000Y-124748000D03*
X166192000Y-125568000D03*
X167012000Y-123928000D03*
X167012000Y-124748000D03*
X167012000Y-125568000D03*
D15*
X164204500Y-125998000D03*
X164204500Y-125498000D03*
X164204500Y-124998000D03*
X164204500Y-124498000D03*
X164204500Y-123998000D03*
X164204500Y-123498000D03*
D16*
X164942000Y-122760500D03*
X165442000Y-122760500D03*
X165942000Y-122760500D03*
X166442000Y-122760500D03*
X166942000Y-122760500D03*
X167442000Y-122760500D03*
D15*
X168179500Y-123498000D03*
X168179500Y-123998000D03*
X168179500Y-124498000D03*
X168179500Y-124998000D03*
X168179500Y-125498000D03*
X168179500Y-125998000D03*
D16*
X167442000Y-126735500D03*
X166942000Y-126735500D03*
X166442000Y-126735500D03*
X165942000Y-126735500D03*
X165442000Y-126735500D03*
X164942000Y-126735500D03*
%TD*%
D10*
%TO.C,R67*%
X151873571Y-117046000D03*
X151873571Y-118066000D03*
%TD*%
D11*
%TO.C,R81*%
X132054600Y-116110200D03*
X132054600Y-115090200D03*
%TD*%
D10*
%TO.C,R59*%
X131556125Y-117046000D03*
X131556125Y-118066000D03*
%TD*%
D20*
%TO.C,C18*%
X136767400Y-88166200D03*
X136767400Y-87206200D03*
%TD*%
D11*
%TO.C,R91*%
X157454600Y-116110200D03*
X157454600Y-115090200D03*
%TD*%
D20*
%TO.C,C3*%
X141593400Y-80546200D03*
X141593400Y-79586200D03*
%TD*%
D10*
%TO.C,R102*%
X132588000Y-117046000D03*
X132588000Y-118066000D03*
%TD*%
%TO.C,R50*%
X164465000Y-77599800D03*
X164465000Y-78619800D03*
%TD*%
%TO.C,R94*%
X112268000Y-117046000D03*
X112268000Y-118066000D03*
%TD*%
%TO.C,R104*%
X137668000Y-117046000D03*
X137668000Y-118066000D03*
%TD*%
%TO.C,R96*%
X117348000Y-117046000D03*
X117348000Y-118066000D03*
%TD*%
D11*
%TO.C,R78*%
X124434600Y-116110200D03*
X124434600Y-115090200D03*
%TD*%
%TO.C,R90*%
X154914600Y-116110200D03*
X154914600Y-115090200D03*
%TD*%
%TO.C,R74*%
X114274600Y-116110200D03*
X114274600Y-115090200D03*
%TD*%
D12*
%TO.C,C32*%
X143874200Y-88092602D03*
X142914200Y-88092602D03*
%TD*%
D10*
%TO.C,R60*%
X134112000Y-117046000D03*
X134112000Y-118066000D03*
%TD*%
D18*
%TO.C,C42*%
X161394900Y-87408800D03*
X161394900Y-88368800D03*
%TD*%
D12*
%TO.C,C7*%
X145648000Y-80522000D03*
X144688000Y-80522000D03*
%TD*%
D11*
%TO.C,R89*%
X152374600Y-116110200D03*
X152374600Y-115090200D03*
%TD*%
D35*
%TO.C,Y2*%
X162961900Y-87038800D03*
X165161900Y-87038800D03*
X165161900Y-88738800D03*
X162961900Y-88738800D03*
%TD*%
D11*
%TO.C,R6*%
X153277400Y-88247002D03*
X153277400Y-87227002D03*
%TD*%
D13*
%TO.C,R12*%
X165202900Y-85602800D03*
X166222900Y-85602800D03*
%TD*%
D11*
%TO.C,R82*%
X134594600Y-116110200D03*
X134594600Y-115090200D03*
%TD*%
D13*
%TO.C,R93*%
X182189000Y-116530000D03*
X183209000Y-116530000D03*
%TD*%
D21*
%TO.C,C44*%
X178154000Y-82085000D03*
X179114000Y-82085000D03*
%TD*%
%TO.C,C43*%
X178132800Y-83418400D03*
X179092800Y-83418400D03*
%TD*%
D20*
%TO.C,C15*%
X145733600Y-83261402D03*
X145733600Y-82301402D03*
%TD*%
D10*
%TO.C,R101*%
X130048000Y-117046000D03*
X130048000Y-118066000D03*
%TD*%
D11*
%TO.C,R83*%
X137134600Y-116110200D03*
X137134600Y-115090200D03*
%TD*%
M02*
